<svg width="63" height="81" viewBox="0 0 63 81" fill="none" xmlns="http://www.w3.org/2000/svg">
<g clip-path="url(#clip0_198_331)">
<path d="M51.3287 39.3843C51.3287 40.1598 51.2995 40.8402 51.3335 41.5156C51.4065 43.0016 51.5717 44.4775 51.596 45.9634C51.6495 49.0153 49.1849 51.3767 46.2488 50.9965C44.3141 50.7463 42.7731 49.7257 42.1606 47.7045C41.9613 47.049 42.0829 46.2736 42.1363 45.5581C42.2481 44.0172 42.637 42.4962 42.2822 40.9303C42.146 40.3349 42.146 39.7045 42.0585 39.0991C42.0342 38.929 41.9273 38.7689 41.8592 38.6038C41.7231 38.7189 41.5676 38.819 41.4558 38.9591C40.1627 40.6251 38.9523 42.3662 37.5766 43.9521C35.1752 46.7188 32.3363 48.9602 29.2204 50.8264C28.8072 51.0715 28.6954 51.2817 28.9724 51.7319C30.6009 54.3536 31.9377 57.1353 33.0217 60.0321C33.6099 61.603 34.1058 63.219 34.5481 64.845C34.9759 66.421 35.3113 68.022 35.6322 69.628C35.8217 70.5736 35.9433 71.5392 36.0356 72.4998C36.1863 74.1008 36.3565 75.7067 36.4002 77.3127C36.4585 79.354 34.9079 80.97 32.9245 80.98C28.9676 81 25.0106 81 21.0585 80.98C19.1481 80.97 17.719 79.5591 17.5537 77.6079C17.4467 76.3371 17.4467 75.0513 17.2183 73.8056C16.8877 72.0145 16.4259 70.2484 15.9592 68.4873C15.4342 66.5011 14.5495 64.6699 13.5579 62.8888C12.9356 61.7731 12.2356 60.7025 11.662 59.5618C10.9183 58.0909 10.5829 56.5099 10.5391 54.8389C10.4662 51.9821 11.2926 49.4505 12.994 47.2242C14.5252 45.2229 16.5134 43.9021 18.9002 43.2317C22.9009 42.111 26.4641 40.1848 29.5072 37.248C31.7627 35.0717 33.5419 32.5501 34.869 29.6833C35.0148 29.3681 35.1072 29.0179 35.2822 28.7227C35.569 28.2374 35.321 28.0523 34.9224 27.9272C33.4398 27.452 31.9377 27.3619 30.4551 27.8472C29.5509 28.1424 28.6759 28.5676 27.8301 29.0129C26.1238 29.9085 24.4613 29.9335 22.8717 28.8028C21.3308 27.7071 20.7231 26.1161 20.9856 24.23C21.1752 22.8491 21.919 21.7734 23.0565 21.018C24.7044 19.9223 26.469 19.0568 28.3454 18.4814C29.5898 18.1012 30.8731 17.861 32.1273 17.5208C32.3606 17.4558 32.6329 17.2907 32.7641 17.0856C33.9356 15.1994 35.637 14.0837 37.7322 13.7435C39.8467 13.4033 41.8106 13.9386 43.5169 15.3545C46.1176 17.5158 48.4655 19.9373 50.4683 22.684C51.6398 24.285 52.6704 26.0011 53.7058 27.7021C54.2794 28.6427 54.9551 29.4632 55.7669 30.1786C57.6238 31.8247 59.4808 33.4707 61.3328 35.1267C62.796 36.4375 63.2627 38.1636 62.869 40.0197C62.4704 41.9159 61.2697 43.2317 59.3835 43.747C57.6384 44.2223 56.0828 43.807 54.7509 42.5713C53.7447 41.6407 52.7676 40.6701 51.771 39.7245C51.6544 39.6095 51.5134 39.5194 51.3238 39.3693L51.3287 39.3843ZM26.9502 77.708C27.587 77.708 28.2238 77.708 28.8606 77.708C30.0467 77.708 31.2329 77.713 32.419 77.698C33.0752 77.688 33.1822 77.5779 33.1481 76.9225C33.1044 76.057 33.0412 75.1914 32.9488 74.3359C32.7787 72.81 32.6377 71.279 32.3655 69.7731C32.0933 68.2722 31.6801 66.7912 31.3106 65.3103C30.7127 62.9138 29.8863 60.5924 28.7926 58.3961C27.6697 56.1397 26.3815 53.9733 25.1516 51.777C24.5245 50.6563 24.7287 49.5906 25.8224 48.9852C28.5933 47.4493 31.194 45.6682 33.5127 43.4568C35.6759 41.3956 37.5426 39.0841 39.1224 36.5276C40.469 34.3512 41.5287 32.0248 42.3988 29.6083C42.6322 28.9579 42.8266 28.2875 42.5495 27.602C42.2481 26.8566 41.4947 26.3713 40.7606 26.4113C39.9731 26.4563 39.346 27.0217 39.0106 27.9122C38.5391 29.158 38.0919 30.4188 37.5183 31.6195C35.7099 35.4169 33.1724 38.6188 29.9398 41.2355C26.9113 43.687 23.5183 45.368 19.8092 46.4287C16.5085 47.3692 14.5009 49.6707 13.8544 53.0878C13.4849 55.039 13.7766 57.0152 14.8655 58.7363C16.9898 62.0933 18.6912 65.6405 19.6488 69.5479C20.2273 71.8944 20.6259 74.2709 20.694 76.6923C20.7183 77.5929 20.8106 77.708 21.6808 77.708C23.4356 77.713 25.1905 77.708 26.9454 77.708H26.9502ZM47.8238 36.4175C47.8238 36.4175 47.8141 36.4175 47.8092 36.4175C47.8092 36.2424 47.819 36.0623 47.8092 35.8872C47.7412 35.0066 48.1155 34.3512 48.8738 34.016C49.6176 33.6908 50.3419 33.8159 50.9592 34.4213C51.7759 35.2268 52.6169 36.0072 53.4433 36.8027C54.571 37.8834 55.6842 38.9891 56.8315 40.0497C57.9398 41.0804 59.1648 40.475 59.5877 39.3943C59.8551 38.7139 59.6023 37.9785 58.8148 37.273C57.2738 35.8972 55.7231 34.5313 54.1773 33.1655C53.1224 32.2349 52.0238 31.3293 51.3287 30.0686C48.7863 25.4407 45.5731 21.4082 41.587 18.0161C40.3037 16.9255 38.3447 16.7053 36.9592 17.4808C36.128 17.9411 35.5349 18.6265 35.1509 19.507C34.8981 20.0874 34.4995 20.5177 33.8919 20.6528C33.1238 20.8229 32.346 20.9429 31.5731 21.073C29.1183 21.4883 26.8919 22.4989 24.7919 23.8297C24.2329 24.1849 24.019 25.0255 24.2863 25.6158C24.5342 26.1662 25.2148 26.4463 25.8808 26.2462C26.0752 26.1862 26.2599 26.0861 26.4349 25.976C28.3551 24.8203 30.4308 24.2049 32.6572 24.22C33.8919 24.23 35.1169 24.4301 36.2738 24.9104C36.6433 25.0655 36.9398 25.0505 37.2704 24.7053C38.262 23.6896 39.4773 23.2293 40.8919 23.2293C44.2752 23.2293 46.7495 26.7015 45.6266 30.1586C45.2134 31.4244 44.6641 32.6452 44.1926 33.8909C44.1245 34.071 44.0953 34.3012 44.144 34.4813C44.4162 35.4619 44.7662 36.4175 45.0044 37.4031C45.5099 39.5094 45.753 41.6457 45.5342 43.8171C45.4467 44.6776 45.3495 45.5381 45.2717 46.3986C45.2572 46.5838 45.2572 46.8039 45.3398 46.959C45.6266 47.4943 46.5502 47.8045 47.2259 47.6294C47.8579 47.4643 48.3197 46.894 48.3245 46.1985C48.3245 45.5281 48.2905 44.8527 48.2565 44.1823C48.1106 41.5857 47.9599 38.9941 47.8141 36.3975L47.8238 36.4175Z" fill="black"/>
<path d="M-0.000107006 35.2868C-0.131357 30.9291 3.49989 27.1918 7.78739 27.1918C12.1575 27.1918 15.6673 30.849 15.6527 35.2367C15.6381 39.8296 12.1527 43.3568 7.78739 43.3568C3.47559 43.3568 -0.0487181 39.7795 -0.00496812 35.2918L-0.000107006 35.2868ZM3.2617 35.2017C3.07698 37.8984 5.42003 40.0547 7.86517 40.0247C10.2909 39.9947 12.386 37.9384 12.4298 35.3268C12.4686 32.6802 10.286 30.4888 7.78253 30.5088C5.28392 30.5288 3.10128 32.7802 3.2617 35.1967V35.2017Z" fill="black"/>
<path d="M24.0723 6.83921C24.0917 3.04687 27.1056 0.0150017 30.7563 -7.56645e-06C34.4362 -0.0150168 37.4743 3.13193 37.4452 6.91426C37.416 10.7266 34.4313 13.8085 30.7709 13.7885C27.1056 13.7685 24.048 10.7266 24.0771 6.84422L24.0723 6.83921ZM27.3195 6.85422C27.2271 8.86546 28.9868 10.4665 30.7368 10.4414C32.7785 10.4114 34.2223 8.82044 34.2271 6.89925C34.232 5.05811 32.9049 3.36207 30.7563 3.34206C28.8459 3.32204 27.3243 4.88801 27.3195 6.85422Z" fill="black"/>
</g>
<defs>
<clipPath id="clip0_198_331">
<rect width="63" height="81" fill="white"/>
</clipPath>
</defs>
</svg>
