<svg width="51" height="55" viewBox="0 0 51 55" fill="none" xmlns="http://www.w3.org/2000/svg">
<g clip-path="url(#clip0_187_1138)">
<path d="M33.983 22.1208C33.4891 22.4729 32.9643 22.8422 32.4429 23.2184C32.3468 23.2874 32.2645 23.3772 32.1685 23.4496C31.2732 24.1399 30.3848 24.8371 29.4792 25.5171C28.9647 25.9002 28.4193 26.2419 27.9082 26.625C27.795 26.7113 27.6955 26.9012 27.7024 27.0392C27.7092 27.1773 27.8258 27.3533 27.9459 27.4361C28.8137 28.0333 29.6953 28.6166 30.5769 29.193C31.2011 29.6002 31.8769 29.935 32.4669 30.3837C33.544 31.2018 34.3775 32.2579 34.2609 33.6799C34.1134 35.5438 33.7772 37.3903 33.5405 39.2472C33.4514 39.9479 33.4479 40.6589 33.345 41.3561C33.1083 42.9887 32.8236 44.6144 32.5801 46.2435C32.4978 46.8061 32.4909 47.379 32.4223 47.9416C32.2919 49.0358 32.2474 50.1541 31.9729 51.2137C31.7637 52.0144 31.3486 52.7462 30.7552 53.4226C30.1652 54.0957 29.4209 54.4339 28.7143 54.6997C27.7401 55.0656 26.6253 55.1967 25.6271 54.5064C25.3973 54.3477 25.0714 54.3304 24.8313 54.182C24.1212 53.7402 23.4867 53.1914 23.1196 52.4252C22.6531 51.4518 22.2758 50.4578 22.4919 49.3188C22.6909 48.273 22.7732 47.2099 22.9344 46.1572C23.1677 44.6109 23.4352 43.0681 23.665 41.5184C23.7576 40.9074 23.7748 40.2827 23.8468 39.6683C23.9429 38.8469 24.0526 38.0289 24.1727 37.2109C24.2516 36.6586 24.0732 36.3549 23.5964 36.0857C23.0236 35.7647 22.4782 35.3919 21.9328 35.0226C21.1473 34.4911 20.3789 33.9319 19.59 33.4038C19.1475 33.107 18.9382 33.2071 18.6638 33.7145C18.2419 34.4876 17.7651 35.2297 17.3569 36.0097C16.9556 36.7794 16.616 37.5802 16.2387 38.3602C16.1186 38.6053 15.9711 38.8365 15.8408 39.0781C15.0999 40.4656 14.3521 41.8462 13.6283 43.2441C13.1549 44.1553 12.7365 45.0941 12.2597 46.0053C11.7829 46.92 11.2581 47.8105 10.7675 48.7182C10.6303 48.9736 10.5652 49.2636 10.4382 49.5259C10.0403 50.3301 9.69389 51.1723 9.20337 51.9143C8.85006 52.4493 8.54478 53.0154 8.06798 53.5089C7.5363 54.0577 6.85026 54.2372 6.30143 54.679C6.14022 54.8067 5.88638 54.8654 5.67371 54.8723C5.05971 54.893 4.41826 54.9793 3.82827 54.8516C2.23323 54.5064 0.209424 53.043 0.0482053 50.979C-0.0375493 49.871 -0.0855719 48.7665 0.473548 47.7483C0.922903 46.9269 1.40313 46.1227 1.84905 45.2978C2.04114 44.9388 2.14748 44.5315 2.33957 44.1726C2.78549 43.3373 3.26915 42.5227 3.7185 41.6875C3.90373 41.3423 4.02379 40.9661 4.19187 40.6141C4.5589 39.8513 4.91564 39.085 5.31354 38.3395C5.72516 37.5629 6.19167 36.8174 6.61015 36.0442C6.81939 35.6542 6.95317 35.2228 7.15898 34.8328C7.58432 34.0182 8.05426 33.2243 8.47274 32.4063C8.8775 31.6194 9.24796 30.8083 9.63557 30.011C9.75563 29.7659 9.89627 29.5278 10.0232 29.2827C10.5652 28.2162 11.09 27.1428 11.6491 26.0866C12.1465 25.1478 12.685 24.2366 13.1892 23.3012C13.3676 22.9699 13.4568 22.5902 13.6386 22.2623C14.2629 21.1406 14.9798 20.1086 16.0432 19.3285C17.453 18.2931 18.7873 17.1575 20.1731 16.091C21.6275 14.9727 23.1093 13.8889 24.5706 12.781C25.6099 11.9906 26.6013 11.1381 27.6715 10.396C29.0607 9.4261 30.642 9.20521 32.3125 9.26388C33.6263 9.3122 34.7548 9.81613 35.777 10.5375C36.7718 11.2347 37.5744 12.1528 38.185 13.24C38.5658 13.9165 39.1112 14.4964 39.5468 15.1418C40.0648 15.9046 40.5381 16.695 41.0424 17.4612C41.3785 17.9721 41.7455 18.4656 42.092 18.973C42.6717 19.8152 43.2445 20.6608 43.8208 21.5064C44.2118 22.0828 44.6029 22.6558 44.9905 23.2356C45.2478 23.6153 45.4844 24.0088 45.7486 24.385C46.2494 25.096 46.7605 25.7967 47.2647 26.5042C47.6969 27.1152 48.1223 27.7295 48.551 28.3404C49.045 29.0446 49.5355 29.7452 50.0294 30.4459C50.05 30.4735 50.0809 30.4976 50.0946 30.5253C50.5405 31.6228 51.254 32.6963 50.887 33.9285C50.6503 34.7189 50.3382 35.4885 49.7413 36.1823C49.0587 36.9692 48.1428 37.1246 47.3299 37.5077C46.8325 37.7424 46.1533 37.7769 45.5805 37.3282C45.2889 37.1004 44.8087 37.1211 44.5034 36.9002C43.9649 36.5067 43.4229 36.0753 43.0147 35.5541C42.5173 34.9156 42.1846 34.1494 41.7352 33.4694C41.2516 32.7342 40.7028 32.0439 40.202 31.3226C39.7972 30.7393 39.4302 30.1352 39.0323 29.545C38.5589 28.8444 38.065 28.161 37.5984 27.4569C37.0873 26.6906 36.6003 25.9071 36.1029 25.1305C36.0377 25.0304 36 24.9131 35.9314 24.8164C35.3174 23.9639 34.6965 23.1148 33.9693 22.1104L33.983 22.1208ZM31.5716 12.2253C30.4053 12.0493 29.5958 12.8397 28.7074 13.3367C28.042 13.7129 27.5 14.31 26.8825 14.7794C26.2377 15.2695 25.5585 15.7148 24.9136 16.2049C24.1075 16.8158 23.322 17.4543 22.5262 18.0722C22.0563 18.4346 21.5726 18.7797 21.1095 19.149C20.571 19.5805 20.0702 20.0637 19.5145 20.4675C18.3791 21.2924 17.1751 22.0345 16.4925 23.3392C16.4308 23.46 16.3553 23.5842 16.3279 23.712C16.1186 24.7578 16.0843 25.8277 16.4068 26.8321C16.5886 27.4051 17.0242 27.9539 17.4735 28.375C18.0018 28.872 18.6604 29.224 19.271 29.6279C20.1217 30.1905 20.9792 30.7427 21.8299 31.3053C22.5365 31.7747 23.2397 32.2545 23.9429 32.7308C24.6221 33.1898 25.2669 33.711 25.9804 34.1045C27.2839 34.8224 27.5308 35.2124 27.3147 36.6897C27.1638 37.7079 26.9649 38.7226 26.8208 39.7408C26.7419 40.3034 26.7762 40.8798 26.6939 41.4424C26.4641 42.9749 26.1725 44.4936 25.9564 46.026C25.7986 47.134 25.778 48.2626 25.5928 49.3637C25.4899 49.9711 25.6134 50.5027 25.826 51.0169C25.9187 51.2447 26.2308 51.3897 26.4572 51.5485C27.3971 52.2043 28.7348 51.7314 28.9647 50.5959C29.2185 49.3533 29.3488 48.0831 29.5306 46.8268C29.5855 46.4333 29.6164 46.0398 29.6713 45.6464C29.9388 43.7204 30.1995 41.7945 30.4808 39.872C30.7278 38.1876 30.9988 36.5067 31.2663 34.8259C31.3864 34.0665 31.5407 33.3417 30.6729 32.8412C29.9354 32.4132 29.2802 31.8472 28.5702 31.3674C27.9596 30.9532 27.3113 30.5943 26.7042 30.1767C25.9701 29.6693 25.2601 29.1274 24.5363 28.6028C23.7131 28.0022 23.5038 26.5008 24.1898 25.7829C24.5878 25.3687 25.0645 25.0304 25.5242 24.6853C26.5018 23.9501 27.5 23.246 28.4742 22.5074C29.0573 22.0656 29.6027 21.5824 30.1755 21.1268C31.0091 20.4641 31.846 19.7979 32.6967 19.1559C33.64 18.4449 35.2625 18.4898 35.9588 19.5391C36.5111 20.3743 37.1079 21.1785 37.6705 22.0034C38.3085 22.9388 38.9362 23.8845 39.5639 24.8302C40.2843 25.9175 41.0046 27.0082 41.7181 28.1023C41.9514 28.4612 42.1572 28.8375 42.3973 29.1895C42.7437 29.7038 43.1176 30.1974 43.4675 30.7082C44.1913 31.7747 44.8876 32.8619 45.6319 33.9146C46.1327 34.6222 47.3024 34.5946 47.7209 33.78C47.9816 33.2761 47.8478 32.5271 47.4191 31.968C46.9148 31.3122 46.4312 30.6426 45.9578 29.9661C45.3095 29.0411 44.6715 28.1126 44.0403 27.1773C43.862 26.9115 43.7316 26.6078 43.5532 26.342C43.3269 26.0038 43.0593 25.6966 42.8363 25.3583C42.4522 24.7854 42.1091 24.1848 41.7147 23.6188C41.1796 22.8491 40.5999 22.1104 40.0648 21.3442C39.588 20.6643 39.1455 19.9567 38.6858 19.2664C38.2227 18.5761 37.7459 17.8927 37.2897 17.1955C36.861 16.5431 36.4733 15.8597 36.024 15.2247C35.6021 14.6275 35.187 14.0063 34.6553 13.5231C34.1305 13.0433 33.4925 12.6636 32.8476 12.3564C32.484 12.1839 32.0072 12.2529 31.5819 12.2115L31.5716 12.2253ZM13.6901 28.6856C13.1721 29.7418 12.6747 30.7807 12.1533 31.8092C12.0093 32.0922 11.776 32.3339 11.6354 32.6169C11.21 33.466 10.8224 34.3357 10.3971 35.1848C10.1913 35.5921 9.91342 35.9649 9.70761 36.3721C9.26854 37.2488 8.8775 38.1462 8.42815 39.016C7.93077 39.979 7.37508 40.9143 6.87428 41.8773C6.38033 42.8299 5.93097 43.8033 5.45075 44.7628C5.29982 45.0665 5.09744 45.3495 4.94308 45.6533C4.40797 46.7094 3.93118 47.7932 3.33775 48.8149C3.05648 49.2981 2.98101 49.7606 2.97758 50.2852C2.97415 50.8996 3.30345 51.2206 3.80426 51.5278C4.51431 51.9627 5.12488 52.0075 5.76975 51.5002C6.51754 50.9134 6.7062 49.978 7.17613 49.2187C7.3545 48.9288 7.5363 48.6388 7.68723 48.3351C8.12629 47.4619 8.53448 46.5748 8.98727 45.712C9.45377 44.8146 9.97516 43.9482 10.4417 43.0543C10.8773 42.2225 11.2512 41.3561 11.6868 40.5243C12.1911 39.5579 12.757 38.626 13.2579 37.6595C13.7346 36.7414 14.1634 35.7957 14.6265 34.8707C14.822 34.4807 15.045 34.1045 15.2508 33.7179C15.5115 33.2243 15.731 32.6997 16.0397 32.2407C16.3587 31.7678 16.2936 31.3433 15.8476 30.974C15.4189 30.615 15.069 30.1628 14.6642 29.7728C14.3143 29.4311 14.2903 28.7822 13.6832 28.689L13.6901 28.6856Z" fill="#DFE2F2"/>
<path d="M50.4343 6.77188C50.4343 10.1613 47.5701 13.4195 43.7248 13.4161C39.9516 13.4126 37.0771 10.2061 37.0428 6.78568C37.0051 3.06839 40.2295 0.0552155 43.5876 -8.81834e-06C47.3128 -0.0586847 50.5131 3.18229 50.4343 6.76843V6.77188ZM43.7179 10.3684C45.9407 10.5409 47.4054 8.53906 47.4294 6.80639C47.4569 4.86664 45.9441 3.13742 43.766 3.11326C41.6427 3.0891 40.0236 4.82522 40.0339 6.77878C40.0442 8.76686 41.6804 10.3684 43.7145 10.3684H43.7179Z" fill="#DFE2F2"/>
<path d="M16.7531 15.984C15.8544 15.8597 14.9111 15.8701 14.0707 15.5767C13.0623 15.2247 12.0298 15.2074 11.011 15.0348C10.2735 14.9071 9.78301 14.2065 9.89278 13.4885C9.98539 12.8845 10.7297 12.3599 11.4021 12.4634C13.124 12.7292 14.846 12.9881 16.5576 13.3091C16.9727 13.385 17.3843 13.6301 17.7273 13.8924C18.4305 14.4308 18.1492 15.2005 17.669 15.6216C17.4289 15.8321 17.0962 15.9391 16.8046 16.0944C16.7875 16.0599 16.7703 16.022 16.7566 15.9874L16.7531 15.984Z" fill="#DFE2F2"/>
<path d="M19.3906 11.9181C18.7903 12.0044 18.4816 11.6109 18.19 11.2278C17.0924 9.78161 16.005 8.32852 14.9176 6.87198C14.3311 6.08849 14.5952 5.10135 15.4973 4.72859C15.9295 4.54911 16.3446 4.69407 16.619 5.02197C17.185 5.69846 17.6961 6.42328 18.2312 7.12739C18.5914 7.60025 18.9584 8.06621 19.3151 8.54252C19.713 9.07405 20.1075 9.60904 20.4814 10.1578C20.7215 10.5099 20.5843 11 20.2825 11.359C20.0286 11.6592 19.8605 12.0458 19.3906 11.9147V11.9181Z" fill="#DFE2F2"/>
<path d="M25.8875 3.82772C25.6954 5.43268 25.5411 6.87197 25.3387 8.30435C25.2529 8.90836 25.1569 9.5469 24.8756 10.0681C24.7007 10.3925 24.2033 10.641 23.8123 10.7239C23.4144 10.8067 22.7798 10.144 22.7798 9.70912C22.7798 8.83243 22.8141 7.95229 22.893 7.07906C22.9959 5.9297 23.1434 4.78725 23.284 3.64134C23.3492 3.12016 23.6442 2.77846 24.1244 2.56102C24.6527 2.31941 25.1638 2.46783 25.5034 2.80262C25.7675 3.06494 25.7983 3.56541 25.891 3.83118L25.8875 3.82772Z" fill="#DFE2F2"/>
</g>
<defs>
<clipPath id="clip0_187_1138">
<rect width="51" height="55" fill="white"/>
</clipPath>
</defs>
</svg>
