<svg width="59" height="56" viewBox="0 0 59 56" fill="none" xmlns="http://www.w3.org/2000/svg">
<g clip-path="url(#clip0_187_1149)">
<path d="M31.0034 25.7634C29.0568 25.4342 27.3869 24.7316 26.0765 23.3019C24.0613 21.101 23.5322 18.5285 24.3318 15.7217C25.1315 12.911 27.0598 11.13 29.8888 10.4495C30.8802 10.2113 31.9565 10.2193 32.9863 10.2759C34.9893 10.3849 36.6754 9.79328 38.0909 8.36165C40.5503 5.87597 43.0319 3.41049 45.5055 0.936931C45.7195 0.722893 45.9215 0.490681 46.1618 0.31097C46.7574 -0.133261 47.5227 -0.0908574 48.0033 0.383662C48.5101 0.882412 48.5586 1.5851 48.1043 2.21309C47.9286 2.45539 47.7044 2.66741 47.4924 2.88145C45.0916 5.28434 42.6725 7.66905 40.2918 10.0941C38.2686 12.1558 35.8576 13.1674 32.958 13.02C32.1564 12.9796 31.3224 12.915 30.5511 13.0826C28.0735 13.6217 26.4298 16.0953 26.7691 18.6173C27.1244 21.2484 29.2991 23.1101 31.9322 22.9991C32.9721 22.9546 34.01 22.7608 35.0459 22.787C35.5143 22.7992 36.1302 23.0697 36.3907 23.4312C36.6209 23.7482 36.6168 24.4549 36.4068 24.8063C36.1948 25.1617 35.6234 25.3535 35.1731 25.5009C34.8076 25.62 34.3856 25.5655 33.8424 25.5958C33.907 25.9895 33.9171 26.3086 34.0141 26.6014C34.7975 28.9921 37.2408 30.4238 39.7467 29.9775C42.0385 29.5676 43.7932 27.405 43.8235 25.0203C43.8417 23.6816 43.8275 22.3287 44.0274 21.0121C44.2657 19.4533 45.0734 18.1186 46.188 16.9959C48.8453 14.3244 51.5046 11.657 54.1862 9.01184C54.4749 8.72713 54.9171 8.41617 55.2786 8.4303C55.7168 8.44645 56.3488 8.68472 56.5224 9.01991C56.7244 9.40963 56.6153 10.0416 56.4598 10.5081C56.3447 10.8554 55.9469 11.1139 55.6622 11.4006C53.2614 13.8035 50.8585 16.2064 48.4556 18.6072C46.8786 20.1822 46.2546 22.0399 46.5293 24.2833C46.8826 27.1526 45.3682 30.3915 42.4464 31.8918C39.5548 33.3759 35.9 32.9357 33.6001 30.8357C32.122 29.4868 31.3184 27.8008 31.0054 25.7654L31.0034 25.7634Z" fill="#DFE2F6"/>
<path d="M24.2045 29.7413C24.2045 27.0234 20.4286 23.8673 16.7152 26.1006C15.0978 27.0739 14.2921 28.56 14.276 30.4621C14.2659 31.6373 14.3547 32.8287 14.1871 33.9816C13.9125 35.8656 12.9413 37.4345 11.5944 38.7773C9.06839 41.2953 6.55041 43.8214 4.02637 46.3434C3.86079 46.509 3.68915 46.6786 3.49531 46.8058C2.8855 47.2056 2.20906 47.1531 1.73656 46.6927C1.28627 46.2545 1.22771 45.3883 1.63761 44.835C1.81531 44.5947 2.04752 44.3928 2.26156 44.1788C4.73512 41.7032 7.20666 39.2236 9.68627 36.7561C11.2471 35.2033 11.8206 33.3638 11.5763 31.1668C11.1139 27.0133 14.173 23.1202 18.4174 22.7164C22.8133 22.2984 26.2238 25.0223 26.977 29.083C27.086 29.6666 27.3869 29.7291 27.8513 29.82C31.3668 30.5126 33.9231 33.5132 34.0968 36.9055C34.3088 41.0066 31.6474 44.2272 28.2107 44.9764C27.3727 45.1601 26.4742 45.2207 25.62 45.1419C23.3625 44.938 21.4645 45.5539 19.8612 47.1915C17.4119 49.6913 14.9141 52.1446 12.4344 54.6142C12.2204 54.8262 12.0104 55.0584 11.756 55.2119C11.1724 55.5652 10.5828 55.5107 10.0982 55.0281C9.61762 54.5495 9.51868 53.968 9.88214 53.3743C10.0376 53.1219 10.2658 52.9079 10.4778 52.6959C13.02 50.1456 15.5622 47.5953 18.1125 45.0551C20.2004 42.9753 22.7204 42.1313 25.6402 42.4705C28.6428 42.8178 31.2214 40.635 31.3809 37.6041C31.5323 34.7712 29.1214 32.3481 26.1612 32.4006C25.1213 32.4188 24.0834 32.5641 23.0435 32.6086C22.0783 32.649 21.4685 32.1381 21.4342 31.3365C21.4039 30.6055 21.9269 30.0926 22.8557 29.9492C23.2838 29.8826 23.7119 29.818 24.1965 29.7433L24.2045 29.7413Z" fill="#DFE2F6"/>
<path d="M29.1009 51.4399C28.2004 51.3632 27.2897 51.3369 26.3992 51.1956C25.6218 51.0724 25.1856 50.4646 25.2523 49.7902C25.329 49.037 25.8641 48.5908 26.7041 48.5666C28.58 48.512 30.4801 48.6191 32.3256 48.3566C37.3778 47.6397 41.5394 45.2065 44.8974 41.3801C45.0973 41.1519 45.2831 40.9116 45.4971 40.6996C46.0504 40.1565 46.8702 40.0979 47.3992 40.5462C47.9383 41.0045 48.0817 41.8526 47.5668 42.4382C46.5471 43.5952 45.5355 44.7866 44.3623 45.778C39.9705 49.4914 34.8618 51.339 29.0989 51.4379L29.1009 51.4399Z" fill="#DFE2F6"/>
<path d="M32.8467 5.54279C32.8346 6.38077 32.1137 6.97039 31.1849 6.87548C25.9106 6.33837 21.1008 7.61856 16.8402 10.7403C15.3904 11.8024 14.1405 13.1533 12.8664 14.4395C12.091 15.223 11.3742 15.4491 10.6897 14.8959C10.0738 14.3991 10.094 13.4299 10.7482 12.6485C14.7645 7.84875 19.8933 5.01981 26.0802 4.22019C27.8652 3.99 29.7027 4.13943 31.514 4.17173C32.2975 4.18587 32.8568 4.83404 32.8467 5.54279Z" fill="#DFE2F6"/>
<path d="M10.7788 21.3655C10.5224 21.7128 10.3225 22.264 9.97719 22.3791C9.53296 22.5286 8.79796 22.5245 8.48902 22.2479C7.14017 21.0464 5.87412 19.7461 4.63229 18.4295C4.14565 17.9126 4.26681 17.0645 4.74738 16.6041C5.21787 16.1538 6.07806 16.0771 6.58489 16.5597C7.87114 17.7854 9.12104 19.0514 10.3528 20.3316C10.5628 20.5497 10.6052 20.9253 10.7788 21.3635V21.3655Z" fill="#DFE2F6"/>
<path d="M54.089 25.7614C54.929 25.7614 55.771 25.7452 56.609 25.7654C57.4894 25.7856 58.0689 26.3126 58.0952 27.0759C58.1194 27.7988 57.6186 28.4389 56.7988 28.4692C55.0542 28.5318 53.3035 28.5338 51.5569 28.4732C50.6684 28.4429 50.202 27.823 50.2545 27.0052C50.305 26.2197 50.7714 25.7937 51.6679 25.7674C52.4736 25.7432 53.2813 25.7634 54.089 25.7614Z" fill="#DFE2F6"/>
<path d="M53.8753 37.9696C53.6168 38.3149 53.4149 38.7612 53.0696 39.0035C52.5991 39.3346 52.0095 39.2902 51.5794 38.8743C50.277 37.6122 48.9807 36.3421 47.7308 35.0276C47.2441 34.5168 47.3511 33.6626 47.8337 33.2002C48.3345 32.7196 49.12 32.651 49.6611 33.1659C50.9514 34.3916 52.2054 35.6596 53.4411 36.9418C53.6511 37.1599 53.6996 37.5335 53.8773 37.9696H53.8753Z" fill="#DFE2F6"/>
<path d="M3.9054 29.6262C3.03309 29.6262 2.15674 29.6706 1.28847 29.6141C0.444435 29.5575 -0.0321033 28.9982 0.00222367 28.243C0.0345314 27.504 0.573666 26.981 1.40357 26.9709C3.08155 26.9487 4.76155 26.9487 6.43953 26.9709C7.34011 26.983 7.8005 27.4191 7.84492 28.2087C7.89136 29.0507 7.44511 29.5757 6.52434 29.6282C5.65405 29.6787 4.77973 29.6383 3.90742 29.6383C3.90742 29.6342 3.90742 29.6302 3.90742 29.6262H3.9054Z" fill="#DFE2F6"/>
</g>
<defs>
<clipPath id="clip0_187_1149">
<rect width="58.0953" height="55.44" fill="white"/>
</clipPath>
</defs>
</svg>
