<svg width="59" height="56" viewBox="0 0 59 56" fill="none" xmlns="http://www.w3.org/2000/svg">
<g clip-path="url(#clip0_1_102)">
<path d="M31.0033 25.7634C29.0567 25.4342 27.3868 24.7316 26.0763 23.3019C24.0611 21.101 23.5321 18.5285 24.3317 15.7217C25.1313 12.911 27.0597 11.13 29.8886 10.4495C30.8801 10.2113 31.9563 10.2193 32.9861 10.2759C34.9892 10.3849 36.6753 9.79328 38.0908 8.36165C40.5502 5.87597 43.0318 3.41049 45.5054 0.936931C45.7194 0.722893 45.9213 0.490681 46.1616 0.31097C46.7573 -0.133261 47.5226 -0.0908574 48.0032 0.383662C48.51 0.882412 48.5585 1.5851 48.1041 2.21309C47.9285 2.45539 47.7043 2.66741 47.4923 2.88145C45.0914 5.28434 42.6724 7.66905 40.2917 10.0941C38.2685 12.1558 35.8575 13.1674 32.9579 13.02C32.1562 12.9796 31.3223 12.915 30.551 13.0826C28.0734 13.6217 26.4297 16.0953 26.7689 18.6173C27.1243 21.2484 29.299 23.1101 31.9321 22.9991C32.972 22.9546 34.0099 22.7608 35.0458 22.787C35.5142 22.7992 36.1301 23.0697 36.3906 23.4312C36.6208 23.7482 36.6167 24.4549 36.4067 24.8063C36.1947 25.1617 35.6233 25.3535 35.173 25.5009C34.8075 25.62 34.3855 25.5655 33.8423 25.5958C33.9069 25.9895 33.917 26.3086 34.0139 26.6014C34.7974 28.9921 37.2407 30.4238 39.7465 29.9775C42.0384 29.5676 43.7931 27.405 43.8234 25.0203C43.8415 23.6816 43.8274 22.3287 44.0273 21.0121C44.2656 19.4533 45.0733 18.1186 46.1879 16.9959C48.8452 14.3244 51.5045 11.657 54.1861 9.01184C54.4748 8.72713 54.917 8.41617 55.2785 8.4303C55.7166 8.44645 56.3487 8.68472 56.5223 9.01991C56.7242 9.40963 56.6152 10.0416 56.4597 10.5081C56.3446 10.8554 55.9468 11.1139 55.6621 11.4006C53.2612 13.8035 50.8584 16.2064 48.4555 18.6072C46.8785 20.1822 46.2545 22.0399 46.5291 24.2833C46.8825 27.1526 45.3681 30.3915 42.4462 31.8918C39.5547 33.3759 35.8999 32.9357 33.6 30.8357C32.1219 29.4868 31.3183 27.8008 31.0053 25.7654L31.0033 25.7634Z" fill="#222222"/>
<path d="M24.2045 29.7413C24.2045 27.0234 20.4286 23.8673 16.7152 26.1006C15.0978 27.0739 14.2921 28.56 14.276 30.4621C14.2659 31.6373 14.3547 32.8287 14.1871 33.9816C13.9125 35.8656 12.9413 37.4345 11.5944 38.7773C9.06839 41.2953 6.55041 43.8214 4.02637 46.3434C3.86079 46.509 3.68915 46.6786 3.49531 46.8058C2.8855 47.2056 2.20906 47.1531 1.73656 46.6927C1.28627 46.2545 1.22771 45.3883 1.63761 44.835C1.81531 44.5947 2.04752 44.3928 2.26156 44.1788C4.73512 41.7032 7.20666 39.2236 9.68627 36.7561C11.2471 35.2033 11.8206 33.3638 11.5763 31.1668C11.1139 27.0133 14.173 23.1202 18.4174 22.7164C22.8133 22.2984 26.2238 25.0223 26.977 29.083C27.086 29.6666 27.3869 29.7291 27.8513 29.82C31.3668 30.5126 33.9231 33.5132 34.0968 36.9055C34.3088 41.0066 31.6474 44.2272 28.2107 44.9764C27.3727 45.1601 26.4742 45.2207 25.62 45.1419C23.3625 44.938 21.4645 45.5539 19.8612 47.1915C17.4119 49.6913 14.9141 52.1446 12.4344 54.6142C12.2204 54.8262 12.0104 55.0584 11.756 55.2119C11.1724 55.5652 10.5828 55.5107 10.0982 55.0281C9.61762 54.5495 9.51868 53.968 9.88214 53.3743C10.0376 53.1219 10.2658 52.9079 10.4778 52.6959C13.02 50.1456 15.5622 47.5953 18.1125 45.0551C20.2004 42.9753 22.7204 42.1313 25.6402 42.4705C28.6428 42.8178 31.2214 40.635 31.3809 37.6041C31.5323 34.7712 29.1214 32.3481 26.1612 32.4006C25.1213 32.4188 24.0834 32.5641 23.0435 32.6086C22.0783 32.649 21.4685 32.1381 21.4342 31.3365C21.4039 30.6055 21.9269 30.0926 22.8557 29.9492C23.2838 29.8826 23.7119 29.818 24.1965 29.7433L24.2045 29.7413Z" fill="#222222"/>
<path d="M29.1012 51.4399C28.2006 51.3632 27.2899 51.3369 26.3994 51.1956C25.622 51.0724 25.1859 50.4646 25.2525 49.7902C25.3293 49.037 25.8643 48.5908 26.7043 48.5666C28.5802 48.512 30.4803 48.6191 32.3259 48.3566C37.378 47.6397 41.5396 45.2065 44.8976 41.3801C45.0975 41.1519 45.2833 40.9116 45.4973 40.6996C46.0506 40.1565 46.8704 40.0979 47.3995 40.5462C47.9386 41.0045 48.082 41.8526 47.5671 42.4382C46.5473 43.5952 45.5357 44.7866 44.3625 45.778C39.9707 49.4914 34.862 51.339 29.0992 51.4379L29.1012 51.4399Z" fill="#222222"/>
<path d="M32.8468 5.54279C32.8347 6.38077 32.1138 6.97039 31.185 6.87548C25.9107 6.33837 21.1009 7.61856 16.8404 10.7403C15.3905 11.8024 14.1406 13.1533 12.8665 14.4395C12.0911 15.223 11.3743 15.4491 10.6898 14.8959C10.0739 14.3991 10.0941 13.4299 10.7483 12.6485C14.7646 7.84875 19.8934 5.01981 26.0804 4.22019C27.8654 3.99 29.7029 4.13943 31.5141 4.17173C32.2976 4.18587 32.8569 4.83404 32.8468 5.54279Z" fill="#222222"/>
<path d="M10.7787 21.3655C10.5223 21.7128 10.3224 22.264 9.97707 22.3791C9.53284 22.5286 8.79784 22.5245 8.4889 22.2479C7.14005 21.0464 5.87399 19.7461 4.63217 18.4295C4.14553 17.9126 4.26669 17.0645 4.74726 16.6041C5.21774 16.1538 6.07794 16.0771 6.58476 16.5597C7.87101 17.7854 9.12092 19.0514 10.3526 20.3316C10.5626 20.5497 10.6051 20.9253 10.7787 21.3635V21.3655Z" fill="#222222"/>
<path d="M54.0892 25.7614C54.9292 25.7614 55.7712 25.7452 56.6092 25.7654C57.4896 25.7856 58.0691 26.3126 58.0953 27.0759C58.1196 27.7988 57.6188 28.4389 56.799 28.4692C55.0544 28.5318 53.3037 28.5338 51.5571 28.4732C50.6686 28.4429 50.2022 27.823 50.2547 27.0052C50.3051 26.2197 50.7716 25.7937 51.6681 25.7674C52.4738 25.7432 53.2815 25.7634 54.0892 25.7614Z" fill="#222222"/>
<path d="M53.8751 37.9696C53.6166 38.3149 53.4147 38.7612 53.0694 39.0035C52.5989 39.3346 52.0093 39.2902 51.5792 38.8743C50.2768 37.6122 48.9805 36.3421 47.7306 35.0276C47.2439 34.5168 47.351 33.6626 47.8336 33.2002C48.3343 32.7196 49.1198 32.651 49.661 33.1659C50.9512 34.3916 52.2052 35.6596 53.441 36.9418C53.651 37.1599 53.6994 37.5335 53.8771 37.9696H53.8751Z" fill="#222222"/>
<path d="M3.90515 29.6262C3.03285 29.6262 2.1565 29.6706 1.28823 29.6141C0.444191 29.5575 -0.0323474 28.9982 0.00197953 28.243C0.0342872 27.504 0.573422 26.981 1.40333 26.9709C3.08131 26.9487 4.76131 26.9487 6.43929 26.9709C7.33987 26.983 7.80025 27.4191 7.84468 28.2087C7.89112 29.0507 7.44487 29.5757 6.5241 29.6282C5.65381 29.6787 4.77948 29.6383 3.90717 29.6383C3.90717 29.6342 3.90717 29.6302 3.90717 29.6262H3.90515Z" fill="#222222"/>
</g>
<defs>
<clipPath id="clip0_1_102">
<rect width="58.0953" height="55.44" fill="white"/>
</clipPath>
</defs>
</svg>
