<svg width="50" height="61" viewBox="0 0 50 61" fill="none" xmlns="http://www.w3.org/2000/svg">
<g clip-path="url(#clip0_187_1177)">
<path d="M9.29368 0.37616C11.0329 0.37616 12.7721 0.37616 14.5113 0.37616C14.6109 0.37616 14.7181 0.406253 14.8177 0.413777C15.2774 0.428824 15.7448 0.4213 16.2045 0.458917C16.4114 0.473964 16.6182 0.549199 16.8098 0.63948C18.2042 1.30907 18.9014 2.43006 18.9167 3.94979C18.9321 5.93598 18.9167 7.91464 18.9014 9.90083C18.8784 13.3541 19.2615 16.7697 19.7059 20.1854C19.8974 21.6524 20.043 23.127 20.2652 24.5941C20.6406 27.0242 21.9507 29.0555 23.1153 31.1696C25.2146 34.9539 28.5704 37.4441 32.0105 39.8742C34.5848 41.6873 37.1745 43.4629 39.7488 45.276C41.9094 46.7957 44.2538 47.9995 46.6366 49.1355C46.8665 49.2484 47.0963 49.3537 47.3185 49.4666C49.7549 50.7305 50.1916 52.0998 48.8662 54.4772C47.3415 57.2082 44.9664 58.9611 41.9937 59.9241C38.3084 61.1204 34.6614 60.6915 31.0528 59.5254C28.716 58.7655 26.5707 57.622 24.5251 56.2978C19.8898 53.311 14.8944 51.1142 9.54652 49.6772C7.66175 49.1731 5.77698 48.6766 4.08376 47.6609C1.27193 45.9682 -0.0765264 43.1694 0.528745 39.987C0.766256 38.7457 1.26426 37.5494 1.50944 36.3081C1.8772 34.4122 2.35988 32.4937 2.39053 30.5752C2.45182 26.3847 2.26028 22.1941 2.16068 17.996C2.14536 17.4995 2.04575 17.0029 2.01511 16.4989C1.9768 15.9346 2.30625 15.5208 2.7966 15.4531C3.27162 15.3854 3.70833 15.724 3.80027 16.2882C3.86923 16.6945 3.88455 17.1158 3.89988 17.5371C3.9152 17.9359 4.04545 18.1465 4.49749 18.1616C8.74205 18.2744 12.887 17.7177 16.9017 16.3258C17.2771 16.1979 17.3691 15.9948 17.3614 15.6337C17.2618 11.7591 17.1852 7.87702 17.1009 3.99493C17.0779 2.86642 16.3884 2.14417 15.2391 2.14417C11.6305 2.14417 8.02951 2.16674 4.42087 2.21188C3.0954 2.22692 2.35988 3.09212 2.52844 4.4012C2.7353 6.03378 2.98048 7.66637 3.20266 9.29895C3.22565 9.48704 3.2563 9.67512 3.26396 9.85569C3.28694 10.4801 2.98048 10.8864 2.45182 10.9391C1.91551 10.9917 1.5171 10.608 1.43282 9.96854C1.19531 8.25319 0.927151 6.54537 0.720286 4.82251C0.651331 4.2733 0.628346 3.68647 0.750933 3.15231C1.11869 1.51972 2.46715 0.481488 4.25997 0.436347C5.93788 0.39873 7.61578 0.428824 9.29368 0.428824C9.29368 0.413777 9.29368 0.391207 9.29368 0.37616ZM17.6219 18.0713C17.3538 18.1239 17.1852 18.139 17.032 18.1916C13.1092 19.5158 9.05617 20.0048 4.92654 19.9672C4.38511 19.9672 4.11951 20.2305 4.12973 20.7571C4.1757 23.9696 4.24465 27.1822 4.25231 30.3947C4.25231 31.0342 4.42853 31.4555 4.91121 31.8993C9.83 36.3833 12.8564 41.8228 13.4693 48.4659C13.4923 48.6841 13.6838 48.9775 13.883 49.0678C16.5876 50.2791 19.2998 51.4753 22.0197 52.6414C22.2496 52.7393 22.625 52.7393 22.8395 52.6264C26.8925 50.5349 30.1487 47.6384 32.1637 43.5306C32.746 42.3419 32.7843 42.6654 31.75 41.8679C29.4439 40.0924 27.1377 38.3244 24.8622 36.5187C24.4714 36.2103 24.1496 36.0748 23.667 36.1651C21.3148 36.6165 19.0163 36.4059 16.7715 35.6009C12.3354 34.0059 10.895 29.552 14.2891 26.1063C15.3311 25.0455 16.5723 24.1803 17.6985 23.2023C17.8977 23.0292 18.1429 22.7433 18.1276 22.5251C17.9973 21.0731 17.8058 19.6286 17.6219 18.0788V18.0713ZM24.3335 53.9129C26.5248 55.7562 31.3439 58.0132 34.0638 58.4796C36.7837 58.9536 39.4883 59.0439 42.0856 57.9756C44.3151 57.0577 46.1769 55.6809 47.3108 53.5142C48.0004 52.1825 47.8701 51.7838 46.5523 51.069C46.3302 50.9487 46.0926 50.8509 45.8705 50.7305C44.1926 49.8578 42.4763 49.0528 40.8597 48.0898C39.3504 47.1945 37.9483 46.1412 36.5002 45.1556C35.7571 44.6516 35.0139 44.14 34.2017 43.5908C32.0871 48.1575 28.7083 51.4603 24.3412 53.9129H24.3335ZM3.93052 33.4266C3.78495 34.209 3.70067 34.826 3.5551 35.4203C3.18734 36.8949 2.7353 38.3545 2.41351 39.8441C1.76227 42.8309 2.88087 45.118 5.67738 46.4572C6.68106 46.9387 7.77668 47.2396 8.84165 47.5857C9.71508 47.8641 10.6192 48.0822 11.6535 48.3757C10.9256 42.4397 8.30533 37.6096 3.93052 33.4341V33.4266ZM23.146 34.4423C21.1156 31.4028 19.1236 28.5213 18.4264 24.9326C17.1086 25.8656 15.9747 26.7985 15.0936 27.9872C13.7298 29.8454 14.0746 31.937 16.0206 33.2009C18.1506 34.5927 20.5333 34.7282 23.146 34.4423Z" fill="#DFE2F2" stroke="#DFE2F2" stroke-miterlimit="10"/>
</g>
<defs>
<clipPath id="clip0_187_1177">
<rect width="50" height="61" fill="white"/>
</clipPath>
</defs>
</svg>
