<svg width="53" height="60" viewBox="0 0 53 60" fill="none" xmlns="http://www.w3.org/2000/svg">
<g clip-path="url(#clip0_1_127)">
<path d="M37.6152 54.1135C37.5272 55.0058 37.4417 55.8535 37.3586 56.7011C37.2828 57.4521 37.2241 58.2056 37.1313 58.9541C37.0457 59.6332 36.4127 60.0768 35.7113 59.9827C35.0637 59.8984 34.5993 59.2763 34.6702 58.5947C34.829 57.0184 34.9855 55.442 35.1492 53.8037C34.6433 53.7046 34.135 53.6104 33.6291 53.5038C31.9818 53.1593 30.3101 52.909 28.6971 52.443C26.3509 51.7639 24.4275 50.4007 23.076 48.294C22.8658 47.9643 22.6825 47.6074 22.5383 47.2431C22.289 46.616 22.5774 45.9319 23.1713 45.6519C23.753 45.3767 24.4959 45.5973 24.7745 46.1971C25.8865 48.5889 27.9102 49.729 30.3053 50.2793C32.4071 50.7626 34.5358 51.1492 36.6669 51.4838C37.9182 51.6796 39.1964 51.6871 40.4648 51.7812C41.4864 51.8556 42.5105 51.9225 43.532 52.0093C44.341 52.0787 44.8493 51.5557 44.7882 50.7328C44.6929 49.449 44.6098 48.1626 44.5512 46.8763C44.5389 46.6309 44.6294 46.3632 44.7271 46.1302C45.1035 45.2454 45.5117 44.3729 45.888 43.4881C45.954 43.332 45.9736 43.1263 45.9369 42.9627C45.5899 41.4706 45.2257 39.9835 44.8664 38.4964C44.6318 37.5273 45.1719 36.8209 46.1569 36.8184C47.4277 36.8135 48.6986 36.8184 49.9695 36.8184C50.1161 36.8184 50.2603 36.8184 50.4534 36.8184C50.4167 36.6846 50.3947 36.5854 50.3605 36.4888C49.3585 33.7277 48.3515 30.9691 47.3593 28.2056C47.2615 27.9329 47.2127 27.6281 47.2078 27.3381C47.1858 25.7295 47.2689 24.1135 47.1589 22.5099C46.5772 13.9392 41.2567 7.1555 32.7908 5.42053C31.9794 5.25447 31.1484 5.19995 30.3248 5.09089C30.0951 5.06115 29.858 5.04876 29.6429 4.97192C29.0955 4.7786 28.7582 4.17136 28.856 3.61122C28.9611 3.00646 29.4596 2.5058 30.0511 2.56776C31.4075 2.71399 32.7883 2.80074 34.0983 3.14278C42.2807 5.27926 47.2224 10.6428 49.1629 18.9235C49.7642 21.4888 49.7837 24.1011 49.7006 26.7185C49.6884 27.0878 49.7568 27.4843 49.8815 27.8338C50.8517 30.5527 51.844 33.2642 52.8314 35.9782C53.4301 37.6215 52.323 39.2821 50.5976 39.3143C49.7422 39.3292 48.8868 39.3168 48.0314 39.3192C47.9116 39.3192 47.7919 39.3192 47.6281 39.3192C47.8603 40.2883 48.0314 41.2252 48.3173 42.1224C48.6082 43.042 48.5862 43.8748 48.0827 44.71C47.8628 45.0768 47.7674 45.5205 47.5426 45.8848C47.0269 46.7151 47.0391 47.6049 47.1271 48.5269C47.2029 49.3151 47.2518 50.1082 47.2591 50.9014C47.2835 53.1866 45.3626 54.8174 43.1263 54.5027C41.9923 54.344 40.8388 54.3267 39.6926 54.2498C39.0107 54.2028 38.3313 54.1606 37.6054 54.111L37.6152 54.1135Z" fill="#222222"/>
<path d="M7.19507 24.3093C5.3792 22.8767 3.59754 21.4689 1.81589 20.0636C1.37353 19.7141 0.92628 19.3696 0.488809 19.0127C0.0440062 18.6509 -0.10752 18.0981 0.0806658 17.5801C0.27374 17.0497 0.723431 16.7201 1.30265 16.7672C2.31201 16.8515 3.31649 16.9779 4.3234 17.0894C5.9853 17.2753 7.64476 17.4661 9.30666 17.6545C11.1983 17.8676 13.0899 18.0808 14.9816 18.2964C15.6732 18.3757 16.3624 18.4575 17.0541 18.5344C17.582 18.5939 17.9412 18.8838 18.1001 19.387C18.2589 19.8876 18.1416 20.3363 17.7677 20.713C17.0467 21.4367 16.3355 22.1679 15.6146 22.8941C15.529 22.9808 15.4264 23.0502 15.2895 23.1593C15.5608 23.3799 15.7734 23.5559 15.9885 23.7269C17.9828 25.3007 19.9795 26.8721 21.9738 28.446C22.4821 28.8475 22.6508 29.4027 22.4406 29.9554C22.2353 30.4907 21.7514 30.8105 21.1282 30.746C19.7082 30.6023 18.2907 30.4313 16.8708 30.2726C15.2211 30.0867 13.5738 29.9009 11.9242 29.7125C10.0325 29.4993 8.14089 29.2837 6.24925 29.0706C5.98286 29.0408 5.71647 29.0111 5.45007 28.9764C4.94173 28.9119 4.59713 28.6294 4.42849 28.1411C4.25742 27.6479 4.37228 27.2067 4.72421 26.8424C5.46718 26.0715 6.22481 25.3156 6.97511 24.5522C7.04354 24.4828 7.10464 24.4085 7.19507 24.3093ZM14.2313 20.7452C11.2936 20.4131 8.45127 20.0934 5.50384 19.7612C5.65537 19.8876 5.71647 19.9446 5.78245 19.9967C7.11198 21.0451 8.44394 22.0935 9.77346 23.1444C10.4602 23.6872 10.5213 24.5076 9.91277 25.1421C9.46308 25.613 8.99628 26.0715 8.5417 26.5375C8.4806 26.5995 8.43172 26.6788 8.3584 26.773C11.2423 27.0977 14.0773 27.4149 16.9123 27.7346C15.9347 26.8795 14.9425 26.0988 13.9502 25.3156C13.525 24.981 13.0973 24.6538 12.6818 24.3068C12.0708 23.7987 12.0219 22.9932 12.5743 22.4157C13.0973 21.868 13.6398 21.3401 14.2337 20.7427L14.2313 20.7452Z" fill="#222222"/>
<path d="M27.2992 15.0149C27.3896 15.7783 27.4703 16.4871 27.5582 17.1985C27.8149 19.273 28.0764 21.3475 28.3354 23.422C28.3941 23.8979 28.3354 24.3415 27.9639 24.6836C27.3994 25.2041 26.6002 25.1198 26.0967 24.4828C24.4324 22.3761 22.7705 20.2644 21.1086 18.1552C19.5298 16.1525 17.951 14.1474 16.3697 12.1497C16.1033 11.8126 15.9518 11.4508 16.0422 11.017C16.1669 10.4147 16.6581 10.0058 17.274 10.0033C18.3005 9.99588 19.3269 10.0033 20.3534 10.0033C20.4854 10.0033 20.6174 10.0033 20.7811 10.0033C20.6687 9.0813 20.5636 8.20143 20.4561 7.32155C20.2141 5.34369 19.9673 3.36831 19.7326 1.39046C19.6642 0.820396 19.9697 0.324692 20.4756 0.109061C21.0035 -0.116484 21.5583 0.0173557 21.9518 0.510581C22.944 1.75232 23.924 3.00397 24.909 4.25067C27.1672 7.11336 29.4279 9.97605 31.6886 12.8387C31.9427 13.1585 32.1187 13.503 32.0527 13.9268C31.9452 14.596 31.471 15.0074 30.777 15.0149C29.7871 15.0248 28.7973 15.0174 27.8075 15.0174C27.6633 15.0174 27.5167 15.0174 27.3065 15.0174L27.2992 15.0149ZM25.2658 19.3895C25.2853 19.3796 25.3025 19.3696 25.322 19.3572C25.2145 18.4749 25.1069 17.595 24.9994 16.7127C24.8845 15.7783 24.7477 14.8488 24.667 13.9119C24.5937 13.0643 25.1143 12.519 25.9477 12.5116C26.302 12.5066 26.6564 12.5116 27.0108 12.5116C27.3945 12.5116 27.7782 12.5116 28.2377 12.5116C26.3949 10.1768 24.6133 7.9164 22.8291 5.65847C22.9709 7.42069 23.1664 9.14079 23.3986 10.8559C23.5379 11.8969 23.0271 12.5314 21.9835 12.5314C21.3041 12.5314 20.6247 12.5314 19.8573 12.5314C21.6951 14.8637 23.4817 17.1266 25.2658 19.3895Z" fill="#222222"/>
<path d="M8.09444 32.0597C8.72743 32.0597 9.18445 32.4537 9.34331 33.1453C9.67569 34.5952 10.14 35.9955 10.7779 37.3364C11.384 38.6129 12.1319 39.7951 13.0484 40.8708C13.7718 41.7184 14.3583 42.6553 14.808 43.679C15.1282 44.4052 14.8862 45.1363 14.2288 45.4412C13.5689 45.746 12.9164 45.4313 12.5351 44.7348C12.1123 43.959 11.6822 43.1659 11.125 42.4917C8.96938 39.8819 7.63008 36.8903 6.892 33.5963C6.71115 32.7883 7.29037 32.0597 8.09444 32.0621V32.0597Z" fill="#222222"/>
<path d="M12.931 60C12.1905 60 11.5868 59.3011 11.709 58.56C11.9632 57.0134 12.2272 55.4693 12.4936 53.9227C12.6158 53.2113 13.2683 52.7305 13.9233 52.8544C14.6369 52.9907 15.0622 53.6079 14.94 54.3564C14.6907 55.8782 14.4365 57.4 14.1774 58.9218C14.065 59.5861 13.5762 59.9975 12.931 60Z" fill="#222222"/>
</g>
<defs>
<clipPath id="clip0_1_127">
<rect width="53" height="60" fill="white"/>
</clipPath>
</defs>
</svg>
