<svg width="39" height="57" viewBox="0 0 39 57" fill="none" xmlns="http://www.w3.org/2000/svg">
<g clip-path="url(#clip0_1_94)">
<path d="M2.0542 23.2688C1.69471 22.9294 1.42983 22.706 1.19197 22.4536C-0.302725 20.8636 -0.337862 18.4497 1.17576 16.883C1.89473 16.1373 2.72722 15.5193 3.51105 14.852C4.38409 14.1093 4.91656 13.2099 4.82466 11.9478C4.7733 11.2166 4.50572 10.6073 4.04082 10.1112C3.42726 9.4613 2.76506 8.86652 2.12988 8.23693C0.967634 7.07929 0.340563 5.71275 0.732482 3.96904C0.986554 2.83751 1.67309 2.05705 2.57585 1.48258C3.87054 0.658595 5.31929 0.339446 6.78966 0.217589C8.26544 0.0957319 9.75203 0.023198 11.2278 0.072521C13.8064 0.153759 16.3795 0.359755 18.85 1.27658C19.723 1.60153 20.5122 2.07155 21.2015 2.73016C22.5502 4.01836 22.7394 6.28722 21.6366 7.89167C21.4447 8.1702 21.2231 8.42552 20.9744 8.74177C21.4393 8.77948 21.861 8.8201 22.2853 8.84331C22.5772 8.85782 22.8692 8.85492 23.1611 8.85202C23.7368 8.84331 24.1638 8.47194 24.2503 7.84815C24.353 7.0938 24.4071 6.33074 24.5017 5.57349C24.6287 4.55801 24.6963 3.52223 24.9288 2.53577C25.2369 1.21275 26.4126 0.353952 27.7344 0.385867C29.0831 0.420684 30.194 1.44486 30.4481 2.86943C30.5454 3.41778 30.5697 3.98645 30.5913 4.54931C30.6319 5.62571 30.6481 6.70211 30.6751 7.77852C30.6994 8.8056 31.0968 9.20888 32.059 9.2379C33.3185 9.27561 34.5781 9.30173 35.8349 9.40037C37.2431 9.51063 38.2648 10.2853 38.7459 11.7273C39.1946 13.0735 38.9081 14.3095 37.9783 15.3307C37.3864 15.9806 36.6404 16.323 35.7755 16.3201C35.3214 16.3201 34.8646 16.3056 34.4105 16.3056C33.7321 16.3056 33.3537 16.6799 33.2726 17.4081C33.0645 19.3346 32.859 21.264 32.6374 23.1905C32.3752 25.4739 30.4156 26.8346 28.3641 26.1731C28.2668 26.1412 28.1668 26.1151 28.0317 26.0745C28.0209 26.234 28.0073 26.353 28.0073 26.4748C28.0073 27.8907 28.0128 29.3066 28.0019 30.7224C27.9992 31.0445 28.0992 31.2215 28.3749 31.3549C29.4966 31.9004 30.021 32.8868 30.1183 34.1721C30.2291 35.6431 30.3318 37.117 30.4589 38.5851C30.5291 39.3917 30.913 39.7514 31.686 39.7572C32.959 39.7688 34.2321 39.7834 35.5025 39.7543C36.6485 39.7282 37.5323 40.2389 38.2324 41.1673C39.1108 42.3307 39.0216 44.3791 38.0702 45.4816C37.3621 46.3027 36.489 46.6915 35.4538 46.6915C35.1619 46.6915 34.87 46.6915 34.5781 46.6915C33.8537 46.6973 33.4266 47.0774 33.3591 47.8491C33.2618 48.9458 33.205 50.0454 33.1239 51.1422C33.0536 52.0909 33.0077 53.0425 32.8969 53.9855C32.732 55.3897 31.7833 56.4835 30.4832 56.8375C29.2264 57.1799 27.8208 56.6663 27.083 55.5551C26.7127 54.9981 26.5072 54.3656 26.4586 53.6663C26.3397 51.9081 26.1964 50.1499 26.064 48.3917C26.0532 48.2553 26.0505 48.116 26.0423 47.9797C26.0045 47.1209 25.5964 46.6973 24.799 46.6944C23.28 46.6915 21.7637 46.6944 20.2446 46.6944C19.8311 46.6944 19.4176 46.6944 19.004 46.6944C18.9932 46.7292 18.9824 46.764 18.9743 46.7988C19.2986 47.0716 19.623 47.3443 19.95 47.617C20.7231 48.2611 21.4285 48.9719 21.7799 49.9845C22.4745 51.9893 21.7015 53.9623 19.8311 55.0329C18.4661 55.8133 16.9769 56.1093 15.4686 56.3211C13.5982 56.5822 11.7197 56.5938 9.84122 56.5358C7.7654 56.4719 5.68688 56.3327 3.69755 55.5986C2.70559 55.2331 1.7758 54.7369 1.09197 53.8404C0.029731 52.4449 -0.0297326 50.4835 1.0271 49.0416C1.48929 48.412 2.10825 47.9129 2.65964 47.3588C3.17049 46.8481 3.75161 46.4013 4.18948 45.8269C5.07603 44.6663 4.97332 42.9748 3.97054 41.9245C3.32185 41.2456 2.60018 40.6422 1.90013 40.0184C1.00007 39.2176 0.386512 38.2311 0.291911 36.9632C0.191904 35.6083 0.659504 34.4797 1.64606 33.6267C2.01365 33.3075 2.4326 33.0551 2.81911 32.7795C2.45152 32.5387 2.05149 32.3327 1.71093 32.0483C0.956822 31.4187 0.467599 30.557 0.435165 29.5503C0.391918 28.2679 0.478411 26.971 0.586526 25.6915C0.654099 24.9023 1.02169 24.2147 1.57308 23.6663C1.71633 23.5242 1.88662 23.4139 2.0623 23.2775L2.0542 23.2688ZM20.5366 41.6547C20.5366 41.6808 20.5366 41.704 20.5366 41.7302C19.7662 41.7302 18.9959 41.7302 18.2256 41.7302C17.6796 41.7302 17.3904 41.5416 17.2525 41.1151C17.1012 40.6451 17.2336 40.2679 17.6499 39.8994C18.2796 39.3423 18.9392 38.8172 19.5203 38.205C20.5149 37.1634 20.3744 35.7011 19.204 34.9178C18.6959 34.5783 18.1202 34.3288 17.5472 34.1373C16.0768 33.647 14.5443 33.5222 13.0171 33.47C10.9656 33.4004 8.90873 33.3859 6.86534 33.6818C5.64904 33.8588 4.43815 34.0735 3.34347 34.7292C2.55153 35.2021 2.04068 35.8462 2.14609 36.9052C2.21907 37.6305 2.64343 38.1093 3.10832 38.5503C3.6489 39.0638 4.22191 39.5367 4.78682 40.0242C6.50315 41.501 7.07076 43.8307 6.23016 46.0068C5.82202 47.0629 5.0517 47.7911 4.25435 48.4961C3.7408 48.9487 3.20563 49.381 2.73532 49.8801C1.90013 50.7708 1.89202 52.1953 2.88128 52.97C3.22455 53.2398 3.61917 53.4574 4.01649 53.6228C5.67066 54.3191 7.41943 54.5164 9.1682 54.5512C11.0548 54.5919 12.9468 54.5164 14.8335 54.4091C16.1065 54.3365 17.3661 54.0812 18.5337 53.5009C18.9689 53.2833 19.4149 52.9961 19.7311 52.6189C20.4582 51.7543 20.2636 50.4632 19.3419 49.6276C18.7716 49.1112 18.185 48.6151 17.6147 48.0986C17.0309 47.5706 16.512 46.9729 16.1687 46.2331C15.8173 45.4758 16.2255 44.736 17.0147 44.7331C19.6987 44.7215 22.3853 44.704 25.0693 44.7389C26.4532 44.7563 27.5857 45.8501 27.8127 47.3211C27.9155 47.9855 27.9479 48.6644 27.9965 49.3375C28.0992 50.7476 28.1857 52.1576 28.2966 53.5677C28.3614 54.3975 28.9912 55.0271 29.7021 55.0126C30.4318 55.001 31.0292 54.3452 31.0832 53.5009C31.1076 53.1006 31.1373 52.7031 31.167 52.3027C31.2778 50.794 31.413 49.2853 31.4968 47.7737C31.5806 46.2563 32.5158 45.0464 33.9186 44.7969C34.4321 44.7069 34.9646 44.736 35.4889 44.7273C36.3863 44.7099 36.9728 44.1093 36.9701 43.204C36.9647 42.293 36.4052 41.7215 35.5052 41.7186C34.2213 41.7157 32.9374 41.7215 31.6535 41.7186C30.0102 41.7098 28.8344 40.648 28.6263 38.91C28.4885 37.7582 28.4425 36.5919 28.3506 35.4313C28.3101 34.9207 28.2912 34.4013 28.1857 33.9052C28.0614 33.3075 27.6073 33.0116 27.0613 33.0754C26.5856 33.1305 26.2343 33.5309 26.1883 34.0938C26.0667 35.6518 25.9342 37.2099 25.8369 38.7708C25.745 40.2331 24.7639 41.4835 23.4016 41.6344C22.4556 41.7389 21.4907 41.6547 20.5366 41.6547ZM12.4603 23.2805C13.5415 23.2079 14.6253 23.1644 15.7038 23.0541C16.8255 22.9381 17.9148 22.6712 18.9148 22.0793C20.0744 21.3946 20.3149 19.8511 19.3878 18.8385C18.8986 18.3017 18.3634 17.8172 17.8499 17.3066C17.2228 16.6828 16.6363 16.0358 16.2092 15.2205C15.7497 14.3443 16.293 13.5145 17.1579 13.5841C18.0986 13.6596 19.0446 13.6886 19.9879 13.7321C21.6772 13.8104 23.3665 13.8743 25.0558 13.9584C26.5505 14.0338 27.7208 15.2843 27.7857 16.883C27.8668 18.8704 27.9317 20.8607 28.0019 22.8481C28.029 23.6634 28.6074 24.3569 29.3047 24.4033C30.0399 24.4526 30.6886 23.8549 30.7859 23.0106C31.0076 21.0725 31.2319 19.1344 31.4265 17.1934C31.5914 15.5425 32.7942 14.3385 34.3429 14.3443C34.7727 14.3443 35.2051 14.4139 35.6349 14.3994C36.4944 14.3733 37.0404 13.7611 37.0404 12.8733C37.0404 11.9855 36.4917 11.3791 35.6376 11.3414C34.3456 11.2834 33.0509 11.2311 31.7563 11.1876C30.0859 11.1296 28.8669 9.79496 28.8371 7.99902C28.8236 7.07349 28.7885 6.14796 28.7588 5.21952C28.7398 4.64505 28.7236 4.06769 28.6858 3.49322C28.6425 2.86362 28.1884 2.34718 27.683 2.32397C27.1667 2.30076 26.6856 2.74757 26.6127 3.35685C26.437 4.84815 26.2451 6.33654 26.118 7.83074C25.9667 9.58316 24.7666 10.8278 23.1232 10.8017C21.561 10.7785 19.9987 10.706 18.4364 10.6596C17.9175 10.6451 17.5526 10.3926 17.4012 9.92842C17.2715 9.53094 17.4363 9.13345 17.8634 8.77368C18.5337 8.21372 19.2446 7.69438 19.8635 7.07349C20.8393 6.09283 20.7258 4.62184 19.596 3.87039C18.931 3.42939 18.185 3.08123 17.4336 2.84331C15.6903 2.29496 13.882 2.1673 12.0711 2.06575C10.0872 1.9584 8.10597 1.9497 6.13556 2.25434C5.15171 2.40811 4.18407 2.64602 3.33807 3.26401C2.31097 4.00966 2.22178 5.40811 2.93264 6.2437C3.47051 6.8791 4.07596 7.45356 4.6787 8.02223C5.81121 9.08413 6.62208 10.3259 6.69236 11.9942C6.76804 13.793 6.01934 15.1799 4.75168 16.2824C4.0192 16.9207 3.22995 17.4952 2.54342 18.1828C1.592 19.1373 1.71363 20.4777 2.76506 21.3191C3.57863 21.9719 4.52734 22.2824 5.49768 22.5203C7.78703 23.0803 10.1115 23.2195 12.4549 23.2717L12.4603 23.2805ZM20.742 39.7021C21.6096 39.7021 22.3988 39.7427 23.1827 39.6876C23.6422 39.6528 23.953 39.206 23.9909 38.6895C24.0963 37.3172 24.2206 35.9478 24.2774 34.5725C24.3314 33.2611 24.7017 32.1644 25.8072 31.4768C26.0315 31.3375 26.1126 31.1779 26.1099 30.9081C26.0559 26.3501 26.0099 21.7921 25.9559 17.2311C25.945 16.3114 25.5342 15.8907 24.672 15.8559C24.2638 15.8414 23.8557 15.8298 23.4476 15.8124C22.015 15.7514 20.5825 15.6876 19.15 15.6296C19.0986 15.6296 19.0446 15.6499 18.9905 15.6644C18.9635 15.705 18.9337 15.7427 18.9067 15.7834C18.9959 15.8385 19.1013 15.8762 19.1743 15.9487C19.7419 16.5058 20.3392 17.0309 20.8555 17.6373C21.5799 18.4874 21.9069 19.5232 21.7907 20.6808C21.6204 22.3984 20.6447 23.4429 19.2392 24.1102C18.9256 24.2582 18.6013 24.3859 18.2823 24.5251C18.5364 24.6499 18.7824 24.6963 19.0338 24.7224C20.1203 24.8385 21.0717 25.2853 21.7042 26.2456C22.5448 27.5222 22.6556 28.9323 21.9799 30.3336C21.3528 31.6364 20.3014 32.2688 18.9446 32.3327C18.8391 32.3385 18.7364 32.353 18.5743 32.3704C19.1419 32.6779 19.6554 32.9187 20.1338 33.2234C22.1178 34.4971 22.6097 37.0416 21.2663 39.0261C21.1177 39.2466 20.942 39.4468 20.742 39.705V39.7021ZM2.22448 28.8888C2.21367 30.0464 2.83803 30.853 3.88676 30.94C4.18678 30.9661 4.4895 30.9052 4.79222 30.8936C6.28422 30.8414 7.77351 30.7892 9.26551 30.7398C9.46552 30.734 9.58715 30.6615 9.64662 30.4381C10.0764 28.8685 10.2142 27.2988 9.69527 25.7118C9.59256 25.3955 9.46282 25.2389 9.15199 25.1953C7.56809 24.9777 5.9869 24.734 4.4003 24.5135C3.33537 24.3656 2.46233 25.0735 2.37043 26.176C2.29746 27.0609 2.27043 27.9487 2.21907 28.8859L2.22448 28.8888ZM11.6495 25.5812C11.6495 25.7263 11.6332 25.8017 11.6495 25.8714C12.0225 27.3133 11.9252 28.7466 11.6116 30.1828C11.5116 30.6354 11.5494 30.676 11.9981 30.6586C12.9306 30.618 13.8604 30.5599 14.7929 30.5222C16.1903 30.4642 17.5904 30.3975 18.9878 30.3743C19.9041 30.3598 21.0609 29.1006 20.4338 27.734C20.0825 26.971 19.4419 26.7244 18.7175 26.6199C17.2147 26.4023 15.7119 26.1789 14.2118 25.9584C13.3712 25.8336 12.5279 25.7118 11.6468 25.5841L11.6495 25.5812Z" fill="#222222" stroke="#222222" stroke-width="0.4" stroke-miterlimit="10"/>
</g>
<defs>
<clipPath id="clip0_1_94">
<rect width="39" height="57" fill="white"/>
</clipPath>
</defs>
</svg>
