<svg width="34" height="65" viewBox="0 0 34 65" fill="none" xmlns="http://www.w3.org/2000/svg">
<g clip-path="url(#clip0_1_142)">
<path d="M10.8809 64.8477C8.98399 64.7737 7.10018 64.5343 5.21201 64.321C4.60293 64.2514 3.99819 64.0468 3.41086 63.8466C2.78002 63.6333 2.56249 63.172 2.6495 62.5147C3.02801 59.6421 3.40651 56.7651 3.75891 53.8881C4.12436 50.8893 4.26358 47.8773 4.29838 44.8611C4.30709 44.1647 4.50286 43.8165 4.92487 43.6902C5.62967 43.4813 6.24746 43.8948 6.25181 44.6304C6.26051 45.5879 6.23876 46.5455 6.1822 47.4987C6.06908 49.3659 5.96902 51.2331 5.77324 53.096C5.4774 55.9077 5.10325 58.7107 4.75085 61.5137C4.65513 62.2536 4.68559 62.3145 5.43389 62.4277C7.68751 62.7715 9.95853 62.9456 12.2339 62.9413C15.6839 62.9326 19.134 62.9195 22.5796 62.8281C24.272 62.7846 25.9601 62.5583 27.6481 62.4016C28.2311 62.345 28.292 62.2667 28.2876 61.6617C28.2659 58.6193 28.8402 55.6944 30.0757 52.9132C30.4977 51.96 31.0503 51.0677 31.4505 50.1058C32.8688 46.6804 31.9378 42.6892 28.7444 40.378C27.1347 39.2115 25.3727 38.415 23.4498 37.958C22.9538 37.8405 22.6492 37.4836 22.6623 37.0092C22.6754 36.513 23.0147 36.13 23.5063 36.0516C23.8196 35.9994 24.1415 35.9776 24.446 35.8949C25.2553 35.6773 25.6164 35.0854 25.4815 34.2454C25.2988 33.1181 24.681 32.2954 23.7761 31.6208C22.7667 30.8678 21.7226 30.141 20.8307 29.2661C20.065 28.5175 19.408 27.6209 18.8599 26.6938C18.4988 26.0801 18.3857 25.3054 18.2247 24.5872C17.9071 23.1726 17.2719 21.9931 15.9928 21.2097C13.935 19.9518 10.9592 20.4828 9.47126 22.3892C8.98834 23.0072 8.64029 23.6993 8.53153 24.4653C8.28789 26.1846 7.73101 27.8167 7.2394 29.4707C6.73908 31.1507 6.22135 32.8221 5.75584 34.5109C5.4948 35.4553 5.78629 36.2997 6.48674 36.97C8.3575 38.7676 10.25 40.5478 12.1338 42.3323C13.6478 43.7686 15.1662 45.2049 16.6715 46.6499C17.2197 47.1766 17.8331 47.4377 18.6032 47.2854C19.8562 47.033 20.5262 45.5488 19.8518 44.4563C19.6865 44.1908 19.4646 43.9514 19.2427 43.7251C16.8673 41.3051 14.4875 38.8851 12.1034 36.4738C11.6857 36.0516 11.6335 35.5772 11.8728 35.081C13.0344 32.6654 14.2134 30.2585 15.3924 27.8516C15.623 27.3815 16.0842 27.2074 16.5192 27.3902C17.0283 27.6078 17.3154 28.191 17.0979 28.6785C16.7498 29.4576 16.3626 30.2237 15.9885 30.9897C15.3098 32.3868 14.6354 33.7796 13.948 35.1724C13.8045 35.4641 13.9524 35.6294 14.1351 35.8122C15.5752 37.266 17.0109 38.7197 18.4466 40.1778C19.2906 41.0352 20.1433 41.8883 20.9656 42.7675C22.4796 44.3866 22.3839 46.7979 20.7654 48.2995C19.4124 49.553 17.2675 49.6183 15.7883 48.3779C14.8095 47.5596 13.9089 46.6543 12.9778 45.7794C10.5285 43.4726 8.07471 41.1745 5.64707 38.8459C5.16851 38.3889 4.74215 37.8623 4.3767 37.3095C3.56748 36.0952 3.56313 34.7764 3.98949 33.4227C4.69429 31.1681 5.40779 28.9179 6.08213 26.659C6.29966 25.9234 6.45194 25.1661 6.57375 24.4087C7.17414 20.7309 10.4414 18.1934 14.1264 18.6156C17.0413 18.9507 18.9295 20.6047 19.8953 23.338C20.0911 23.8951 20.2042 24.4827 20.3391 25.0616C20.5914 26.1019 21.2048 26.9332 21.9314 27.6644C22.5622 28.2955 23.2583 28.8787 23.9849 29.3923C25.0203 30.1236 26.0645 30.8374 26.6953 31.9821C27.4349 33.3226 27.7873 34.7024 27.0347 36.1648C26.9128 36.4042 26.7388 36.6218 26.5953 36.8394C27.5698 37.4053 28.5226 37.8927 29.4101 38.4847C31.4505 39.847 32.9471 41.6489 33.6171 44.0515C33.7607 44.5651 33.8651 45.1005 33.8782 45.6315C33.9043 46.7152 33.926 47.812 33.8173 48.8915C33.6911 50.1363 33.1038 51.2375 32.5077 52.3212C31.3592 54.4017 30.6544 56.6345 30.4064 58.9936C30.2846 60.1731 30.2759 61.3657 30.2411 62.5539C30.215 63.4853 29.8974 63.9337 28.9794 64.086C27.8526 64.2731 26.7171 64.4385 25.5816 64.5517C24.4591 64.6649 23.3279 64.7302 22.1968 64.7606C19.3689 64.8433 13.7131 64.9565 10.8852 64.8433L10.8809 64.8477Z" fill="#222222" stroke="#222222" stroke-width="0.5" stroke-miterlimit="10"/>
<path d="M22.1359 8.78332C22.1228 11.1511 21.7443 13.0749 20.4957 14.7375C19.4994 16.0607 18.129 16.8224 16.5367 17.1531C15.5926 17.349 14.618 17.423 13.6522 17.4883C12.9387 17.5405 12.4471 17.1009 12.4514 16.5264C12.4514 15.9214 12.9431 15.5079 13.6653 15.4992C14.1134 15.4992 14.5789 15.5732 15.0096 15.4905C17.4285 15.0422 19.2863 14.2849 19.9736 11.3774C20.3565 9.76698 20.3347 8.16527 19.8083 6.57226C18.8164 3.58645 15.6187 1.63654 12.5124 2.13707C9.72796 2.58538 7.89636 4.16098 6.98708 6.80729C6.81741 7.30347 6.7652 7.85624 6.7304 8.38724C6.69559 8.89213 6.55202 9.30562 6.19092 9.66687C5.35995 10.4982 5.04236 11.5689 4.92054 12.6962C4.75087 14.2936 4.9423 15.8735 5.22509 17.4535C5.65144 19.8299 5.6819 22.2151 5.14677 24.5785C4.73347 26.3891 4.17224 28.1519 3.13244 29.7144C2.73219 30.3151 2.27537 30.8852 1.80116 31.4249C1.37045 31.9168 0.857075 31.9255 0.426365 31.5294C-0.0043449 31.1333 0.0217587 30.6197 0.417664 30.1018C1.00065 29.3314 1.63583 28.5741 2.0709 27.721C2.57557 26.7243 2.98452 25.6579 3.24556 24.5741C3.49354 23.5295 3.51965 22.4284 3.59796 21.3489C3.71542 19.7429 3.41088 18.1716 3.1455 16.6004C2.80615 14.5591 2.73219 12.5221 3.47179 10.5504C3.72848 9.87144 4.17659 9.26209 4.52029 8.61357C4.63775 8.39159 4.76392 8.15221 4.79873 7.90847C5.3034 4.51353 7.04799 2.06743 10.2631 0.748631C12.2165 -0.052226 14.2265 -0.108808 16.2104 0.578884C18.9121 1.51467 20.7263 3.38188 21.6791 6.08043C22.0228 7.05973 22.1925 8.07386 22.1446 8.77461L22.1359 8.78332Z" fill="#222222" stroke="#222222" stroke-width="0.5" stroke-miterlimit="10"/>
</g>
<defs>
<clipPath id="clip0_1_142">
<rect width="34" height="65" fill="white"/>
</clipPath>
</defs>
</svg>
