<svg width="34" height="65" viewBox="0 0 34 65" fill="none" xmlns="http://www.w3.org/2000/svg">
<g clip-path="url(#clip0_187_1182)">
<path d="M10.881 64.8476C8.98417 64.7737 7.10036 64.5343 5.2122 64.321C4.60311 64.2514 3.99838 64.0468 3.41104 63.8466C2.78021 63.6333 2.56268 63.1719 2.64969 62.5147C3.02819 59.6421 3.40669 56.7651 3.75909 53.8881C4.12454 50.8892 4.26376 47.8773 4.29857 44.861C4.30727 44.1646 4.50305 43.8164 4.92506 43.6902C5.62985 43.4813 6.24764 43.8948 6.25199 44.6304C6.26069 45.5879 6.23894 46.5454 6.18238 47.4986C6.06927 49.3659 5.9692 51.2331 5.77342 53.0959C5.47758 55.9076 5.10343 58.7106 4.75103 61.5136C4.65532 62.2536 4.68577 62.3145 5.43408 62.4277C7.68769 62.7715 9.95871 62.9456 12.2341 62.9413C15.6841 62.9326 19.1341 62.9195 22.5798 62.8281C24.2722 62.7846 25.9602 62.5582 27.6483 62.4015C28.2313 62.345 28.2922 62.2666 28.2878 61.6616C28.2661 58.6192 28.8403 55.6944 30.0759 52.9131C30.4979 51.9599 31.0505 51.0677 31.4507 50.1058C32.869 46.6804 31.938 42.6891 28.7446 40.378C27.1349 39.2115 25.3729 38.415 23.4499 37.958C22.954 37.8405 22.6494 37.4836 22.6625 37.0092C22.6755 36.513 23.0149 36.13 23.5065 36.0516C23.8197 35.9994 24.1417 35.9776 24.4462 35.8949C25.2554 35.6773 25.6165 35.0854 25.4817 34.2453C25.299 33.118 24.6812 32.2954 23.7762 31.6208C22.7669 30.8678 21.7228 30.1409 20.8309 29.2661C20.0652 28.5175 19.4082 27.6208 18.8601 26.6938C18.499 26.0801 18.3858 25.3053 18.2249 24.5872C17.9073 23.1726 17.2721 21.9931 15.993 21.2096C13.9352 19.9518 10.9593 20.4828 9.47144 22.3892C8.98852 23.0072 8.64047 23.6993 8.53171 24.4653C8.28808 26.1845 7.7312 27.8167 7.23958 29.4706C6.73926 31.1507 6.22154 32.8221 5.75602 34.5108C5.49498 35.4553 5.78648 36.2997 6.48692 36.97C8.35769 38.7676 10.2502 40.5477 12.134 42.3322C13.648 43.7686 15.1664 45.2049 16.6717 46.6499C17.2199 47.1766 17.8333 47.4377 18.6034 47.2854C19.8563 47.0329 20.5263 45.5487 19.852 44.4563C19.6867 44.1908 19.4648 43.9514 19.2429 43.725C16.8675 41.3051 14.4877 38.8851 12.1036 36.4738C11.6859 36.0516 11.6337 35.5772 11.873 35.081C13.0346 32.6654 14.2136 30.2585 15.3926 27.8515C15.6232 27.3815 16.0844 27.2074 16.5194 27.3902C17.0284 27.6078 17.3156 28.191 17.0981 28.6785C16.75 29.4576 16.3628 30.2236 15.9887 30.9897C15.31 32.3868 14.6356 33.7796 13.9482 35.1724C13.8046 35.464 13.9526 35.6294 14.1353 35.8122C15.5753 37.2659 17.011 38.7197 18.4467 40.1778C19.2908 41.0352 20.1435 41.8883 20.9657 42.7675C22.4798 44.3866 22.384 46.7979 20.7656 48.2995C19.4126 49.553 17.2677 49.6183 15.7885 48.3778C14.8096 47.5596 13.9091 46.6543 12.978 45.7794C10.5286 43.4726 8.07489 41.1745 5.64726 38.8459C5.16869 38.3889 4.74233 37.8622 4.37688 37.3095C3.56767 36.0951 3.56332 34.7763 3.98967 33.4227C4.69447 31.1681 5.40797 28.9179 6.08232 26.6589C6.29985 25.9234 6.45212 25.166 6.57394 24.4087C7.17432 20.7309 10.4416 18.1934 14.1266 18.6156C17.0415 18.9507 18.9297 20.6046 19.8955 23.338C20.0913 23.8951 20.2044 24.4827 20.3393 25.0616C20.5916 26.1018 21.205 26.9332 21.9316 27.6644C22.5624 28.2955 23.2585 28.8787 23.9851 29.3923C25.0205 30.1235 26.0647 30.8373 26.6955 31.982C27.4351 33.3226 27.7875 34.7023 27.0348 36.1648C26.913 36.4042 26.739 36.6218 26.5954 36.8394C27.57 37.4052 28.5228 37.8927 29.4103 38.4846C31.4507 39.847 32.9473 41.6489 33.6173 44.0515C33.7609 44.5651 33.8653 45.1004 33.8784 45.6314C33.9045 46.7152 33.9262 47.812 33.8174 48.8914C33.6913 50.1362 33.1039 51.2374 32.5079 52.3212C31.3593 54.4017 30.6545 56.6345 30.4066 58.9935C30.2847 60.1731 30.276 61.3657 30.2412 62.5539C30.2151 63.4853 29.8975 63.9336 28.9796 64.086C27.8528 64.2731 26.7172 64.4385 25.5817 64.5517C24.4593 64.6648 23.3281 64.7301 22.197 64.7606C19.3691 64.8433 13.7133 64.9565 10.8854 64.8433L10.881 64.8476Z" fill="#DFE2F2" stroke="#DFE2F2" stroke-width="0.5" stroke-miterlimit="10"/>
<path d="M22.1357 8.78329C22.1227 11.151 21.7442 13.0748 20.4955 14.7375C19.4992 16.0606 18.1288 16.8223 16.5365 17.1531C15.5924 17.349 14.6179 17.423 13.652 17.4883C12.9385 17.5405 12.4469 17.1009 12.4513 16.5264C12.4513 15.9214 12.9429 15.5079 13.6651 15.4992C14.1132 15.4992 14.5787 15.5732 15.0094 15.4905C17.4284 15.0422 19.2861 14.2848 19.9735 11.3774C20.3563 9.76695 20.3346 8.16523 19.8081 6.57223C18.8162 3.58642 15.6185 1.63651 12.5122 2.13704C9.72778 2.58535 7.89617 4.16095 6.9869 6.80726C6.81722 7.30344 6.76502 7.85621 6.73021 8.38721C6.69541 8.8921 6.55184 9.30558 6.19074 9.66684C5.35977 10.4982 5.04218 11.5689 4.92036 12.6962C4.75069 14.2935 4.94211 15.8735 5.2249 17.4534C5.65126 19.8299 5.68172 22.2151 5.14659 24.5785C4.73328 26.3891 4.17206 28.1518 3.13226 29.7144C2.732 30.315 2.27519 30.8852 1.80097 31.4249C1.37026 31.9167 0.856892 31.9255 0.426182 31.5294C-0.00452801 31.1333 0.0215756 30.6197 0.417481 30.1018C1.00046 29.3314 1.63565 28.574 2.07071 27.7209C2.57538 26.7242 2.98434 25.6579 3.24538 24.5741C3.49336 23.5295 3.51946 22.4283 3.59778 21.3489C3.71524 19.7428 3.4107 18.1716 3.14531 16.6003C2.80596 14.559 2.732 12.5221 3.47161 10.5504C3.72829 9.87141 4.17641 9.26206 4.5201 8.61354C4.63757 8.39156 4.76374 8.15218 4.79854 7.90844C5.30321 4.5135 7.04781 2.0674 10.2629 0.748601C12.2163 -0.0522565 14.2263 -0.108839 16.2102 0.578854C18.9119 1.51464 20.7261 3.38185 21.6789 6.08039C22.0226 7.0597 22.1923 8.07383 22.1444 8.77458L22.1357 8.78329Z" fill="#DFE2F2" stroke="#DFE2F2" stroke-width="0.5" stroke-miterlimit="10"/>
</g>
<defs>
<clipPath id="clip0_187_1182">
<rect width="34" height="65" fill="white"/>
</clipPath>
</defs>
</svg>
