<svg width="50" height="61" viewBox="0 0 50 61" fill="none" xmlns="http://www.w3.org/2000/svg">
<g clip-path="url(#clip0_1_137)">
<path d="M9.29362 0.37616C11.0328 0.37616 12.772 0.37616 14.5112 0.37616C14.6108 0.37616 14.7181 0.406253 14.8177 0.413777C15.2774 0.428824 15.7447 0.4213 16.2044 0.458917C16.4113 0.473964 16.6182 0.549199 16.8097 0.63948C18.2041 1.30907 18.9013 2.43006 18.9167 3.94979C18.932 5.93598 18.9167 7.91464 18.9013 9.90083C18.8784 13.3541 19.2614 16.7697 19.7058 20.1854C19.8974 21.6524 20.0429 23.127 20.2651 24.5941C20.6405 27.0242 21.9507 29.0555 23.1153 31.1696C25.2146 34.9539 28.5704 37.4441 32.0104 39.8742C34.5848 41.6873 37.1744 43.4629 39.7487 45.276C41.9093 46.7957 44.2538 47.9995 46.6366 49.1355C46.8664 49.2484 47.0963 49.3537 47.3184 49.4666C49.7549 50.7305 50.1916 52.0998 48.8661 54.4772C47.3414 57.2082 44.9663 58.9611 41.9936 59.9241C38.3083 61.1204 34.6614 60.6915 31.0527 59.5254C28.7159 58.7655 26.5707 57.622 24.525 56.2978C19.8897 53.311 14.8943 51.1142 9.54646 49.6772C7.66169 49.1731 5.77692 48.6766 4.08369 47.6609C1.27186 45.9682 -0.0765874 43.1694 0.528684 39.987C0.766195 38.7457 1.2642 37.5494 1.50938 36.3081C1.87714 34.4122 2.35982 32.4937 2.39047 30.5752C2.45176 26.3847 2.26022 22.1941 2.16062 17.996C2.14529 17.4995 2.04569 17.0029 2.01505 16.4989C1.97674 15.9346 2.30619 15.5208 2.79654 15.4531C3.27156 15.3854 3.70827 15.724 3.80021 16.2882C3.86917 16.6945 3.88449 17.1158 3.89981 17.5371C3.91514 17.9359 4.04539 18.1465 4.49742 18.1616C8.74198 18.2744 12.8869 17.7177 16.9017 16.3258C17.2771 16.1979 17.369 15.9948 17.3614 15.6337C17.2618 11.7591 17.1851 7.87702 17.1009 3.99493C17.0779 2.86642 16.3883 2.14417 15.2391 2.14417C11.6304 2.14417 8.02945 2.16674 4.42081 2.21188C3.09534 2.22692 2.35982 3.09212 2.52838 4.4012C2.73524 6.03378 2.98042 7.66637 3.2026 9.29895C3.22559 9.48704 3.25624 9.67512 3.2639 9.85569C3.28688 10.4801 2.98042 10.8864 2.45176 10.9391C1.91544 10.9917 1.51704 10.608 1.43276 9.96854C1.19525 8.25319 0.92709 6.54537 0.720225 4.82251C0.65127 4.2733 0.628285 3.68647 0.750872 3.15231C1.11863 1.51972 2.46708 0.481488 4.25991 0.436347C5.93782 0.39873 7.61572 0.428824 9.29362 0.428824C9.29362 0.413777 9.29362 0.391207 9.29362 0.37616ZM17.6218 18.0713C17.3537 18.1239 17.1851 18.139 17.0319 18.1916C13.1091 19.5158 9.05611 20.0048 4.92648 19.9672C4.38505 19.9672 4.11945 20.2305 4.12966 20.7571C4.17563 23.9696 4.24459 27.1822 4.25225 30.3947C4.25225 31.0342 4.42847 31.4555 4.91115 31.8993C9.82994 36.3833 12.8563 41.8228 13.4692 48.4659C13.4922 48.6841 13.6838 48.9775 13.883 49.0678C16.5875 50.2791 19.2998 51.4753 22.0196 52.6414C22.2495 52.7393 22.6249 52.7393 22.8394 52.6264C26.8925 50.5349 30.1487 47.6384 32.1637 43.5306C32.746 42.3419 32.7843 42.6654 31.75 41.8679C29.4438 40.0924 27.1376 38.3244 24.8621 36.5187C24.4714 36.2103 24.1496 36.0748 23.6669 36.1651C21.3148 36.6165 19.0163 36.4059 16.7714 35.6009C12.3353 34.0059 10.8949 29.552 14.289 26.1063C15.331 25.0455 16.5722 24.1803 17.6985 23.2023C17.8977 23.0292 18.1428 22.7433 18.1275 22.5251C17.9973 21.0731 17.8057 19.6286 17.6218 18.0788V18.0713ZM24.3335 53.9129C26.5247 55.7562 31.3439 58.0132 34.0638 58.4796C36.7837 58.9536 39.4882 59.0439 42.0855 57.9756C44.3151 57.0577 46.1769 55.6809 47.3108 53.5142C48.0003 52.1825 47.8701 51.7838 46.5523 51.069C46.3301 50.9487 46.0926 50.8509 45.8704 50.7305C44.1925 49.8578 42.4763 49.0528 40.8597 48.0898C39.3503 47.1945 37.9482 46.1412 36.5002 45.1556C35.757 44.6516 35.0138 44.14 34.2017 43.5908C32.0871 48.1575 28.7083 51.4603 24.3411 53.9129H24.3335ZM3.93046 33.4266C3.78489 34.209 3.70061 34.826 3.55504 35.4203C3.18728 36.8949 2.73524 38.3545 2.41345 39.8441C1.76221 42.8309 2.88081 45.118 5.67732 46.4572C6.681 46.9387 7.77662 47.2396 8.84159 47.5857C9.71502 47.8641 10.6191 48.0822 11.6534 48.3757C10.9256 42.4397 8.30527 37.6096 3.93046 33.4341V33.4266ZM23.1459 34.4423C21.1156 31.4028 19.1235 28.5213 18.4263 24.9326C17.1085 25.8656 15.9746 26.7985 15.0935 27.9872C13.7297 29.8454 14.0745 31.937 16.0206 33.2009C18.1505 34.5927 20.5333 34.7282 23.1459 34.4423Z" fill="#222222" stroke="#222222" stroke-miterlimit="10"/>
</g>
<defs>
<clipPath id="clip0_1_137">
<rect width="50" height="61" fill="white"/>
</clipPath>
</defs>
</svg>
