<svg width="53" height="60" viewBox="0 0 53 60" fill="none" xmlns="http://www.w3.org/2000/svg">
<g clip-path="url(#clip0_187_1167)">
<path d="M37.6154 54.1135C37.5274 55.0058 37.4419 55.8535 37.3588 56.7011C37.283 57.4521 37.2244 58.2056 37.1315 58.9541C37.046 59.6332 36.413 60.0768 35.7116 59.9827C35.0639 59.8984 34.5996 59.2763 34.6704 58.5947C34.8293 57.0184 34.9857 55.442 35.1495 53.8037C34.6435 53.7046 34.1352 53.6104 33.6293 53.5038C31.9821 53.1593 30.3104 52.909 28.6974 52.443C26.3511 51.7639 24.4277 50.4007 23.0762 48.294C22.866 47.9643 22.6827 47.6074 22.5385 47.2431C22.2893 46.616 22.5777 45.9319 23.1715 45.6519C23.7532 45.3767 24.4962 45.5973 24.7748 46.1971C25.8868 48.5889 27.9104 49.729 30.3055 50.2793C32.4073 50.7626 34.536 51.1492 36.6672 51.4838C37.9185 51.6796 39.1967 51.6871 40.4651 51.7812C41.4867 51.8556 42.5107 51.9225 43.5323 52.0093C44.3412 52.0787 44.8496 51.5557 44.7885 50.7328C44.6932 49.449 44.6101 48.1626 44.5514 46.8763C44.5392 46.6309 44.6296 46.3632 44.7274 46.1302C45.1038 45.2454 45.5119 44.3729 45.8883 43.4881C45.9543 43.332 45.9738 43.1263 45.9371 42.9627C45.5901 41.4706 45.226 39.9835 44.8667 38.4964C44.6321 37.5273 45.1722 36.8209 46.1571 36.8184C47.428 36.8135 48.6988 36.8184 49.9697 36.8184C50.1163 36.8184 50.2605 36.8184 50.4536 36.8184C50.417 36.6846 50.395 36.5854 50.3607 36.4888C49.3587 33.7277 48.3518 30.9691 47.3595 28.2056C47.2618 27.9329 47.2129 27.6281 47.208 27.3381C47.186 25.7295 47.2691 24.1135 47.1591 22.5099C46.5775 13.9392 41.2569 7.1555 32.791 5.42053C31.9796 5.25447 31.1487 5.19995 30.325 5.09089C30.0953 5.06115 29.8582 5.04876 29.6432 4.97192C29.0957 4.7786 28.7585 4.17136 28.8562 3.61122C28.9613 3.00646 29.4599 2.5058 30.0513 2.56776C31.4077 2.71399 32.7886 2.80074 34.0985 3.14278C42.281 5.27926 47.2227 10.6428 49.1632 18.9235C49.7644 21.4888 49.784 24.1011 49.7009 26.7185C49.6886 27.0878 49.7571 27.4843 49.8817 27.8338C50.852 30.5527 51.8442 33.2642 52.8316 35.9782C53.4304 37.6215 52.3232 39.2821 50.5978 39.3143C49.7424 39.3292 48.887 39.3168 48.0316 39.3192C47.9119 39.3192 47.7921 39.3192 47.6284 39.3192C47.8606 40.2883 48.0316 41.2252 48.3176 42.1224C48.6084 43.042 48.5864 43.8748 48.083 44.71C47.863 45.0768 47.7677 45.5205 47.5428 45.8848C47.0272 46.7151 47.0394 47.6049 47.1274 48.5269C47.2031 49.3151 47.252 50.1082 47.2593 50.9014C47.2838 53.1866 45.3628 54.8174 43.1266 54.5027C41.9926 54.344 40.839 54.3267 39.6928 54.2498C39.0109 54.2028 38.3315 54.1606 37.6056 54.111L37.6154 54.1135Z" fill="#DFE2F2"/>
<path d="M7.19507 24.3093C5.3792 22.8767 3.59754 21.4689 1.81589 20.0636C1.37353 19.7141 0.92628 19.3696 0.488809 19.0127C0.0440062 18.6508 -0.10752 18.0981 0.0806658 17.5801C0.27374 17.0497 0.723431 16.7201 1.30265 16.7672C2.31201 16.8514 3.31649 16.9778 4.3234 17.0894C5.9853 17.2752 7.64476 17.4661 9.30666 17.6545C11.1983 17.8676 13.0899 18.0808 14.9816 18.2964C15.6732 18.3757 16.3624 18.4575 17.0541 18.5343C17.582 18.5938 17.9412 18.8838 18.1001 19.3869C18.2589 19.8876 18.1416 20.3362 17.7677 20.713C17.0467 21.4367 16.3355 22.1678 15.6146 22.8941C15.529 22.9808 15.4264 23.0502 15.2895 23.1593C15.5608 23.3798 15.7734 23.5558 15.9885 23.7268C17.9828 25.3007 19.9795 26.8721 21.9738 28.4459C22.4821 28.8475 22.6508 29.4026 22.4406 29.9554C22.2353 30.4907 21.7514 30.8104 21.1282 30.746C19.7082 30.6023 18.2907 30.4312 16.8708 30.2726C15.2211 30.0867 13.5738 29.9008 11.9242 29.7125C10.0325 29.4993 8.14089 29.2837 6.24925 29.0705C5.98286 29.0408 5.71647 29.011 5.45007 28.9763C4.94173 28.9119 4.59713 28.6293 4.42849 28.1411C4.25742 27.6479 4.37228 27.2067 4.72421 26.8423C5.46718 26.0715 6.22481 25.3156 6.97511 24.5522C7.04354 24.4828 7.10464 24.4084 7.19507 24.3093ZM14.2313 20.7452C11.2936 20.4131 8.45127 20.0933 5.50384 19.7612C5.65537 19.8876 5.71647 19.9446 5.78245 19.9967C7.11198 21.0451 8.44394 22.0935 9.77346 23.1444C10.4602 23.6872 10.5213 24.5076 9.91277 25.1421C9.46308 25.613 8.99628 26.0715 8.5417 26.5375C8.4806 26.5994 8.43172 26.6788 8.3584 26.7729C11.2423 27.0976 14.0773 27.4149 16.9123 27.7346C15.9347 26.8795 14.9425 26.0988 13.9502 25.3156C13.525 24.981 13.0973 24.6538 12.6818 24.3068C12.0708 23.7987 12.0219 22.9932 12.5743 22.4157C13.0973 21.8679 13.6398 21.34 14.2337 20.7427L14.2313 20.7452Z" fill="#DFE2F2"/>
<path d="M27.2993 15.0148C27.3897 15.7782 27.4704 16.4871 27.5584 17.1984C27.815 19.2729 28.0765 21.3475 28.3355 23.422C28.3942 23.8979 28.3355 24.3415 27.9641 24.6835C27.3995 25.204 26.6003 25.1198 26.0969 24.4828C24.4325 22.376 22.7706 20.2644 21.1087 18.1551C19.5299 16.1525 17.9511 14.1474 16.3699 12.1497C16.1035 11.8126 15.9519 11.4507 16.0424 11.017C16.167 10.4147 16.6582 10.0058 17.2741 10.0033C18.3006 9.99584 19.3271 10.0033 20.3535 10.0033C20.4855 10.0033 20.6175 10.0033 20.7812 10.0033C20.6688 9.08127 20.5637 8.2014 20.4562 7.32152C20.2142 5.34366 19.9674 3.36828 19.7328 1.39043C19.6643 0.820366 19.9698 0.324662 20.4757 0.10903C21.0036 -0.116515 21.5584 0.0173252 21.9519 0.510551C22.9441 1.75229 23.9242 3.00394 24.9091 4.25064C27.1673 7.11333 29.428 9.97602 31.6887 12.8387C31.9428 13.1584 32.1188 13.5029 32.0528 13.9268C31.9453 14.596 31.4712 15.0074 30.7771 15.0148C29.7873 15.0248 28.7975 15.0173 27.8076 15.0173C27.6635 15.0173 27.5168 15.0173 27.3066 15.0173L27.2993 15.0148ZM25.2659 19.3894C25.2855 19.3795 25.3026 19.3696 25.3221 19.3572C25.2146 18.4749 25.1071 17.595 24.9995 16.7126C24.8847 15.7782 24.7478 14.8488 24.6671 13.9119C24.5938 13.0643 25.1144 12.519 25.9478 12.5115C26.3022 12.5066 26.6565 12.5115 27.0109 12.5115C27.3946 12.5115 27.7783 12.5115 28.2378 12.5115C26.395 10.1768 24.6134 7.91637 22.8293 5.65844C22.971 7.42066 23.1665 9.14076 23.3987 10.8559C23.538 11.8969 23.0272 12.5314 21.9837 12.5314C21.3042 12.5314 20.6248 12.5314 19.8574 12.5314C21.6953 14.8637 23.4818 17.1265 25.2659 19.3894Z" fill="#DFE2F2"/>
<path d="M8.09456 32.0596C8.72755 32.0596 9.18457 32.4537 9.34343 33.1452C9.67581 34.5952 10.1402 35.9955 10.778 37.3364C11.3841 38.6128 12.132 39.7951 13.0485 40.8708C13.7719 41.7184 14.3585 42.6553 14.8082 43.6789C15.1283 44.4051 14.8864 45.1363 14.2289 45.4412C13.5691 45.746 12.9165 45.4312 12.5353 44.7348C12.1125 43.959 11.6823 43.1659 11.1251 42.4917C8.9695 39.8818 7.6302 36.8903 6.89212 33.5963C6.71127 32.7883 7.29049 32.0596 8.09456 32.0621V32.0596Z" fill="#DFE2F2"/>
<path d="M12.9311 60C12.1906 60 11.587 59.3011 11.7092 58.56C11.9633 57.0134 12.2273 55.4693 12.4937 53.9227C12.6159 53.2113 13.2684 52.7305 13.9234 52.8544C14.637 52.9907 15.0623 53.6079 14.9401 54.3564C14.6908 55.8782 14.4366 57.4 14.1776 58.9218C14.0651 59.5861 13.5764 59.9975 12.9311 60Z" fill="#DFE2F2"/>
</g>
<defs>
<clipPath id="clip0_187_1167">
<rect width="53" height="60" fill="white"/>
</clipPath>
</defs>
</svg>
