<svg width="51" height="55" viewBox="0 0 51 55" fill="none" xmlns="http://www.w3.org/2000/svg">
<g clip-path="url(#clip0_1_116)">
<path d="M31.8515 9.26288C33.1978 8.89687 35.3394 10.0442 36.3648 10.8958C37.8227 12.1065 38.6668 13.9436 39.7481 15.471C41.8478 18.4413 43.8219 21.4749 45.8728 24.4804C46.9889 26.1204 48.0981 27.7534 49.263 29.3582C50.3164 30.8011 51.286 32.4271 50.9233 34.2923C50.2536 37.7412 45.7961 38.2199 43.787 35.7704C41.499 32.969 39.6155 29.682 37.5995 26.6695C36.6508 25.2476 35.8137 23.7343 34.7952 22.3618C34.1465 21.489 33.9233 21.7635 33.1211 22.3829C32.2142 23.0868 31.3213 23.8118 30.4144 24.5227C29.6053 25.1491 26.787 26.4653 27.7636 27.5563C28.2799 28.1335 29.389 28.5065 30.0517 28.957C30.9795 29.5905 31.984 30.231 32.8281 30.9771C34.2511 32.2441 34.286 33.8911 34.0419 35.6648C33.7698 37.6779 33.5536 39.691 33.2536 41.697C32.9815 43.5481 32.6746 45.3852 32.4374 47.2434C32.2142 48.989 32.284 51.1076 31.4678 52.6913C29.9261 55.6898 25.4268 55.7039 23.6061 52.987C22.6155 51.5088 22.8666 49.3761 23.1178 47.708C23.3968 45.8779 23.6968 44.062 23.8991 42.2249C23.9897 41.4013 24.0874 40.5778 24.206 39.7543C24.3176 38.9378 24.771 37.8187 24.5966 37.0022C24.3525 35.8408 22.2319 34.9399 21.3041 34.3416C20.8297 34.0389 19.8043 33.1098 19.2183 33.0605C18.4579 32.9902 18.2557 33.9685 17.9766 34.5246C17.0698 36.3476 16.1769 38.1988 15.2142 39.9866C13.4633 43.2595 11.9077 46.6311 10.1289 49.8829C9.41733 51.1851 8.79648 52.9025 7.6664 53.8809C6.15963 55.1901 3.97621 55.3238 2.24622 54.3806C0.871985 53.6345 0.0976721 52.086 1.10371e-05 50.5657C-0.104626 48.8412 1.08126 47.0111 1.86255 45.526C5.75504 38.1706 9.61265 30.773 13.3796 23.3543C14.3562 21.4257 15.2072 20.1235 16.9163 18.7932C18.4789 17.5755 20.0554 16.386 21.6598 15.2246C23.4108 13.9577 25.1896 12.6696 26.8428 11.2689C28.0636 10.2342 30.1284 8.84056 31.8445 9.24176L31.8515 9.26288ZM34.4465 18.7721C35.8486 19.2014 36.2881 20.1728 37.0484 21.3905C37.8506 22.6856 38.7784 23.9103 39.6434 25.1632C41.3176 27.5915 43.1243 30.0198 44.6311 32.5608C45.0636 33.2928 45.7961 34.8624 46.7866 34.961C47.9655 35.0806 48.8724 33.6377 48.4538 32.6171C48.0004 31.512 46.954 30.3436 46.2565 29.3793C45.3287 28.0913 44.4986 26.761 43.5987 25.4588C42.0849 23.2627 40.5712 21.0597 39.0644 18.8566C37.7809 16.9772 36.588 14.5982 34.9278 13.0356C30.7702 9.11507 25.5942 15.5625 22.4272 17.9134C21.3808 18.6876 20.3902 19.5463 19.3439 20.3206C18.444 20.9822 17.5232 21.5101 16.7977 22.397C15.284 24.2552 15.6188 27.1199 17.3907 28.7036C19.1904 30.3155 21.5831 31.5261 23.6061 32.8423C24.6106 33.4969 26.1453 34.1304 26.8498 35.1229C27.5055 36.0379 27.0312 37.2134 26.8917 38.241C26.515 41.0916 26.1941 43.9493 25.8314 46.8C25.6012 48.5737 24.4292 51.4244 26.7103 52.3535C29.4657 53.4726 29.7238 49.6999 29.9471 47.9543C30.3238 45.0826 30.554 42.1756 31.0004 39.3109C31.2236 37.882 31.5655 36.4391 31.6492 34.9962C31.7398 33.4618 31.412 33.0465 30.1773 32.1666C29.096 31.3853 27.9799 30.6392 26.8498 29.9213C25.9918 29.3723 24.5618 28.6966 24.1572 27.683C23.6898 26.5076 24.8199 25.6418 25.657 25.0083C26.6336 24.2763 27.5544 23.5021 28.5519 22.7841C29.7448 21.9254 30.7911 20.8978 32.0049 20.0602C32.6537 19.6097 33.5815 18.6032 34.4465 18.7721ZM4.68774 52.5294C6.7177 52.7547 7.79197 48.7356 8.49652 47.3279C9.63358 45.0685 10.8613 42.8583 12.0542 40.6341C13.3028 38.3043 14.5236 35.9112 15.6676 33.5251C16.2536 32.3074 16.9233 31.7866 15.9118 30.7519C15.5002 30.3295 14.4608 28.4784 13.9028 28.4643C13.1982 28.4502 12.8215 29.9565 12.4936 30.5407C11.8868 31.6247 11.3636 32.7368 10.8195 33.8489C9.69636 36.1927 8.41281 38.4803 7.206 40.7749C5.95733 43.1399 4.69472 45.5119 3.49488 47.9051C3.01355 48.8553 2.309 49.9463 2.67871 51.0443C2.98565 51.9593 3.73206 52.5224 4.68774 52.5294Z" fill="#222222"/>
<path d="M43.9963 12.9863C40.2991 13.0285 37.5646 9.92449 37.5437 6.58113C37.5228 3.03365 40.1736 0.0422263 43.9266 -5.54844e-06C47.8609 -0.0422374 50.5047 2.8788 50.4977 6.54594C50.4977 10.0723 47.7144 13.0848 43.9893 12.9793L43.9963 12.9863ZM48.0144 6.36997C48.2446 4.26542 45.9565 2.41425 43.9963 2.39314C41.6803 2.37202 40.0201 4.63846 40.1736 6.80637C40.334 9.00947 42.5174 10.9451 44.7776 10.4594C46.668 10.0512 48.1748 8.36191 48.0144 6.36997Z" fill="#222222"/>
<path d="M14.9073 5.88432C14.9003 5.33531 15.2421 4.7511 15.8351 4.7511C16.5117 4.7511 17.1186 5.68724 17.4953 6.16587C18.0045 6.81342 18.43 7.51025 18.9114 8.17892C19.3439 8.77721 20.2089 9.49515 20.2856 10.2764C20.3554 11.0296 19.8252 11.5223 19.0858 11.3322C18.4231 11.1633 18.0813 10.4102 17.7046 9.91043C16.707 8.56605 15.6676 7.39763 14.9073 5.88432Z" fill="#222222"/>
<path d="M22.9852 8.48158C23.1666 7.43282 23.348 6.3911 23.4805 5.33531C23.5712 4.61736 23.5293 3.63195 23.8781 2.97032C24.1641 2.42131 24.6594 2.12568 25.2593 2.51281C25.9639 2.97032 25.7476 3.85719 25.636 4.54698C25.4756 5.46904 25.3082 6.38407 25.1826 7.32021C25.0989 7.93257 25.2245 9.45292 24.7641 9.90339C24.492 10.1709 23.5991 10.2553 23.2782 9.98081C22.8876 9.65 23.041 8.93206 23.041 8.49566C23.0271 8.49566 23.0062 8.48862 22.9922 8.48158H22.9852Z" fill="#222222"/>
<path d="M11.3566 12.6414C12.947 12.8737 14.5375 13.106 16.1141 13.4297C16.7209 13.5564 17.5859 13.5916 17.7673 14.3237C17.9836 15.1824 17.2232 15.471 16.5675 15.471C14.9421 15.4569 13.0866 14.9853 11.4961 14.6615C10.8473 14.5278 10.1218 14.3729 10.1428 13.5283C10.1567 12.8315 10.7287 12.6344 11.3566 12.6414Z" fill="#222222"/>
</g>
<defs>
<clipPath id="clip0_1_116">
<rect width="51" height="55" fill="white"/>
</clipPath>
</defs>
</svg>
