<svg width="73" height="48" viewBox="0 0 73 48" fill="none" xmlns="http://www.w3.org/2000/svg">
<g clip-path="url(#clip0_1_157)">
<path d="M8.79655 40.6095C5.2294 39.0666 2.32303 34.4893 2.4779 30.6268C2.52436 29.4748 2.95283 28.4256 3.53617 27.4536C5.10551 24.8563 7.37692 23.0151 10.0303 21.6059C10.242 21.4928 10.5053 21.2819 10.7376 21.5031C10.9492 21.6985 10.846 21.9917 10.784 22.2334C10.5414 23.2003 10.3452 24.1775 10.2885 25.1803C10.1233 28.1787 11.3622 30.3748 14.0518 31.7429C16.7258 33.0955 19.6064 33.6921 22.5592 34.0264C29.2134 34.7773 35.5114 33.2395 41.7578 31.1874C45.9496 29.8091 49.7852 27.8702 52.8464 24.6506C54.9423 22.4494 56.8472 20.0887 57.637 17.0646C58.5094 13.7217 57.3273 11.397 54.1473 9.99295C51.8552 8.97977 49.4238 8.63004 46.9717 8.3626C41.1899 7.73515 35.4237 8.20317 29.6522 8.60432C28.7178 8.67118 27.7783 8.82548 26.7562 8.6969C27.0091 8.0283 27.546 7.76087 28.0003 7.42143C28.7385 6.87112 29.6316 6.54711 30.3233 5.91966C33.8956 4.40246 37.5402 3.21956 41.4377 2.71554C46.3264 2.08809 51.1893 1.72808 56.0986 2.30924C60.0426 2.77726 63.7182 3.95502 66.9395 6.32596C69.4586 8.17745 70.677 10.7387 70.8473 13.8245C71.0486 17.4349 69.8407 20.5465 67.5073 23.2723C65.8347 25.2266 64.4151 27.3507 63.3104 29.6754C63.1761 29.9582 63.0213 30.3182 63.2949 30.5291C63.5995 30.7605 63.7543 30.3542 63.9298 30.1897C67.9409 26.3478 71.0228 21.9197 72.5664 16.5298C73.1291 16.7406 72.9948 17.1932 72.969 17.6304C72.7935 21.0711 71.1467 23.838 69.0921 26.4815C60.6879 37.2768 49.6096 43.4484 36.1412 45.5211C33.2658 45.9634 30.3594 46.0354 27.4531 46.0302C20.5563 44.9553 14.3667 42.317 9.07531 37.7345C7.10848 36.0322 6.23605 33.8412 6.47868 31.2337C6.57676 30.1588 6.90715 29.1353 7.17043 28.0965C7.2427 27.8187 7.62471 27.4021 7.22205 27.2376C6.91231 27.1141 6.74712 27.6181 6.58192 27.8856C4.38279 31.424 4.7648 35.8162 7.52662 38.9997C7.97574 39.5191 8.54876 39.9409 8.80171 40.6198L8.79655 40.6095Z" fill="#75A883"/>
<path d="M40.8802 27.3558C38.712 28.4718 36.4303 29.1096 33.9627 28.945C33.3536 28.9039 32.7444 28.8267 32.1353 28.765C31.7584 28.621 31.3816 28.4667 30.9996 28.333C28.181 27.3404 25.8837 25.7769 24.8306 22.8248C24.9339 22.0122 25.0216 21.1996 25.1404 20.3921C25.5895 17.368 27.3705 15.568 30.3027 14.7862C33.5549 13.9222 36.8278 13.7679 40.1368 14.3748C40.5395 14.4468 40.9525 14.4673 41.3551 14.5085C42.6612 15.4908 43.9518 16.4886 44.9636 17.8C46.8478 20.243 46.7291 22.2848 44.6022 24.558C43.5181 25.7152 42.1501 26.4609 40.875 27.3507L40.8802 27.3558Z" fill="#75A883"/>
<path d="M20.8557 5.26131C21.6713 5.96077 22.1772 6.88652 22.647 7.81226C24.0769 10.6204 24.2473 13.5776 23.5607 16.6172C23.4781 16.9926 23.4007 17.368 23.3284 17.7435C23.1064 18.8749 22.7864 19.1475 21.6661 19.271C17.9751 19.6824 14.3408 19.2195 10.7221 18.5869C10.4691 18.5406 10.2162 18.5046 9.96322 18.4686C9.82384 18.4378 9.68446 18.4018 9.54508 18.3709C7.5834 17.8978 5.61657 17.4452 3.66522 16.936C2.24559 16.5657 1.84293 16 1.80164 14.5394C3.48454 12.7239 5.74563 12.441 8.02736 12.2044C9.17339 12.0861 10.3194 12.045 11.4706 12.0193C12.8386 11.9884 12.9522 11.829 12.787 10.4661C12.7973 9.36546 12.8025 8.26485 12.818 7.16424C12.8335 6.36707 12.9315 5.58533 13.2464 4.84473C13.9485 3.17838 15.6314 2.61265 17.1749 3.52811C17.7067 3.84184 18.1816 4.22756 18.6204 4.66472C20.2104 6.22306 21.4235 8.05399 22.5541 9.94663C22.7502 10.2706 22.8896 10.6872 23.4678 10.6924C23.2665 10.2192 23.1013 9.82319 22.9309 9.42718C22.3166 7.99741 21.4132 6.71165 20.8505 5.26131H20.8557Z" fill="#A1BC8F"/>
<path d="M72.5663 16.5246C71.0228 21.9145 67.9409 26.3426 63.9298 30.1845C63.7595 30.3491 63.5994 30.7554 63.2949 30.5239C63.0213 30.3131 63.1761 29.9531 63.3103 29.6702C64.4151 27.3455 65.8347 25.2215 67.5073 23.2671C69.8407 20.5413 71.0486 17.4298 70.8473 13.8193C70.6769 10.7335 69.4535 8.17743 66.9394 6.32079C63.7182 3.94985 60.0426 2.77209 56.0986 2.30408C51.1893 1.71777 46.3264 2.08293 41.4377 2.71038C37.5402 3.20925 33.8956 4.39729 30.3233 5.91449C29.9929 5.94535 29.6625 5.99164 29.3321 6.01221C29.1256 6.02764 28.8882 6.01735 28.8004 5.7962C28.7281 5.60591 28.9037 5.45676 29.0379 5.3539C29.2599 5.18418 29.487 5.00932 29.74 4.89103C34.2621 2.81838 38.8927 1.05946 43.8588 0.442296C51.4577 -0.504024 58.8914 -0.133725 65.8141 3.63098C67.7293 4.66987 69.4483 5.95563 70.7699 7.70427C72.7625 10.3529 73.16 13.3462 72.5715 16.5246H72.5663Z" fill="#222222"/>
<path d="M8.79658 40.6094C8.54879 39.9357 7.97577 39.5088 7.52149 38.9894C4.75967 35.8058 4.37766 31.4137 6.57679 27.8753C6.74199 27.6078 6.91234 27.0987 7.21692 27.2272C7.61441 27.3918 7.23757 27.8084 7.16529 28.0861C6.90202 29.125 6.57163 30.1433 6.47355 31.2234C6.23092 33.836 7.10335 36.0218 9.07018 37.7242C14.3615 42.3066 20.5563 44.945 27.4479 46.0199C29.4096 46.5497 31.4178 46.5651 33.4104 46.4416C37.3131 46.1999 41.1642 45.6085 44.9223 44.4719C49.3309 43.1347 53.4349 41.17 57.2757 38.6396C57.6887 38.3671 58.2462 37.8013 58.6127 38.2436C58.9741 38.6808 58.272 39.0922 57.9416 39.4265C55.8354 41.5558 53.1562 42.7592 50.4511 43.8856C45.4644 45.9685 40.2711 47.28 34.8971 47.8045C25.4605 48.72 16.8601 46.4211 9.15278 40.9026C9.02888 40.8152 8.91531 40.7123 8.79658 40.6146V40.6094Z" fill="#222222"/>
<path d="M40.8802 27.3558C42.1553 26.4712 43.5285 25.7203 44.6074 24.5632C46.7343 22.2899 46.853 20.2481 44.9688 17.8052C43.957 16.4937 42.6664 15.496 41.3603 14.5137C41.3603 13.8913 41.763 13.7473 42.2431 13.9068C44.277 14.5959 46.2129 15.4703 47.6996 17.0903C48.5049 17.9646 48.8353 18.983 48.7889 20.1813C48.6495 23.8534 44.5455 27.5975 40.8751 27.3507L40.8802 27.3558Z" fill="#222222"/>
<path d="M20.8557 5.26122C21.4184 6.71156 22.3218 7.99732 22.9361 9.42709C23.1064 9.8231 23.2716 10.2191 23.4729 10.6923C22.8948 10.6871 22.7502 10.2705 22.5592 9.94654C21.4287 8.0539 20.2104 6.22297 18.6255 4.66463C18.1816 4.22747 17.7067 3.84175 17.1801 3.52802C15.6366 2.61256 13.9537 3.17829 13.2516 4.84464C12.9367 5.58524 12.8335 6.37212 12.8231 7.16415C12.8025 8.26476 12.8025 9.36537 12.7922 10.466C12.5237 10.466 12.3482 10.3168 12.2811 10.0803C11.8371 8.44477 11.4861 6.78871 11.832 5.09665C12.3017 2.80285 14.1911 1.67138 16.6484 2.09311C18.068 2.33998 19.1521 3.07543 20.0349 4.16576C20.3239 4.52063 20.5872 4.89607 20.8608 5.26637L20.8557 5.26122Z" fill="#222222"/>
<path d="M24.8358 22.8299C25.8889 25.7769 28.1861 27.3455 31.0047 28.3381C31.3867 28.4719 31.7636 28.6261 32.1404 28.7701C29.5644 29.233 27.2672 28.5181 25.1403 27.1089C24.4589 26.6564 24.144 25.9569 23.9943 25.1803C23.8136 24.2494 23.7156 23.3082 23.7775 22.3568C23.7878 22.1768 23.7723 21.9505 23.953 21.8785C24.2163 21.7808 24.2731 22.0636 24.3867 22.2128C24.5467 22.4134 24.6861 22.6242 24.8358 22.8351V22.8299Z" fill="#3D3D3D"/>
<path d="M1.80167 14.5393C1.84297 15.9999 2.24563 16.5657 3.66526 16.936C5.61661 17.4451 7.58344 17.8926 9.54511 18.3709C6.92783 18.7206 4.3983 18.34 1.9204 17.4914C1.55904 17.368 1.20284 17.2188 0.851808 17.0594C0.330417 16.8228 -0.0722421 16.4885 0.0103546 15.8405C0.087789 15.2182 0.443987 14.8119 1.04798 14.6525C1.2906 14.5856 1.54872 14.5753 1.80167 14.5393Z" fill="#222222"/>
</g>
<defs>
<clipPath id="clip0_1_157">
<rect width="73" height="48" fill="white"/>
</clipPath>
</defs>
</svg>
