<svg width="63" height="43" viewBox="0 0 63 43" fill="none" xmlns="http://www.w3.org/2000/svg">
<g clip-path="url(#clip0_164_229)">
<path d="M62.5796 14.9003C63.1708 15.0467 62.9713 15.5236 62.9428 15.8706C62.7885 17.8609 62.2733 19.7474 61.1289 21.4142C54.5832 30.936 45.6585 36.9352 34.3216 39.4497C30.6202 40.2713 26.9069 40.531 23.1438 40.4011C22.8992 40.8521 22.5193 40.9158 22.0469 40.819C16.6455 39.7023 11.757 37.5255 7.59972 33.8731C5.35133 31.8969 4.20458 29.6516 5.57451 25.6876C5.62199 25.5365 5.74783 25.8032 5.6125 25.7253C5.56264 25.697 5.5294 25.7159 5.50803 25.782C4.48949 28.7497 5.05693 31.4365 6.94681 33.8943C7.25783 34.3004 7.56174 34.7112 7.86089 35.1267C8.07457 35.4242 8.14817 35.7052 7.6757 35.835C4.32092 34.4184 1.54783 29.628 2.23873 26.4431C2.49514 25.2626 3.06496 24.2379 3.78672 23.2865C5.0593 21.6078 7.77779 19.5089 9.23081 19.0792C9.55846 19.3956 9.32816 19.745 9.26168 20.0661C9.1026 20.8358 8.92691 21.6007 8.88418 22.3916C8.73935 25.0926 9.91459 27.0191 12.3363 28.1878C14.9764 29.4604 17.8326 29.9562 20.7126 30.1663C26.4819 30.5889 31.9046 29.0331 37.2775 27.1655C42.109 25.4845 45.839 22.5168 48.5123 18.1962C49.0774 17.2825 49.5142 16.3216 49.7612 15.278C50.4259 12.459 49.5048 10.5419 46.8551 9.3095C44.5925 8.25651 42.1518 7.98736 39.7063 7.76307C34.5187 7.29087 29.3547 7.81029 24.186 8.1361C23.837 8.15735 23.4856 8.28248 23.0155 8.05819C23.8798 6.90839 25.2402 6.49759 26.2777 5.67597C26.5128 4.49784 27.6975 4.63478 28.443 4.19564C29.0176 3.85802 29.3167 4.50965 29.934 4.19564C31.8334 3.74705 33.0704 3.35985 34.483 3.18278C37.4057 2.81683 40.1218 2.35408 43.0754 2.34936C46.3589 2.34464 49.8466 2.6492 52.983 3.54165C53.2798 3.62664 53.6383 3.85566 53.8709 3.73761C54.8349 3.24889 55.521 3.84858 56.2642 4.23341C56.8981 4.69144 57.5296 5.16364 58.1635 5.62875C60.5188 7.35934 61.5563 9.72503 61.7296 12.6031C61.9196 15.7668 60.8488 18.4701 58.928 20.8759C57.6792 22.4365 56.4945 24.0278 55.7347 25.409C57.5462 23.2109 59.6474 20.6988 60.9248 17.6367C61.212 16.9496 61.5064 16.2649 61.7771 15.5684C61.9148 15.2143 62.0335 14.7964 62.5772 14.905L62.5796 14.9003Z" fill="#73619E"/>
<path d="M35.2288 24.2733C32.9211 25.5955 30.4495 25.9402 27.845 25.5105C25.2048 25.4562 23.1488 24.3182 21.634 22.191C21.2636 21.6715 20.9194 21.1285 21.4654 20.51C21.5106 19.9244 21.5224 19.3342 21.6079 18.7557C22.0899 15.5 23.4574 14.048 26.7006 13.2689C29.3835 12.6243 32.0735 12.5369 34.7801 13.0894C35.0864 13.1508 35.4045 13.1626 35.7155 13.1957C36.3518 12.6999 36.7673 13.309 37.1543 13.5711C38.066 14.1873 38.8495 14.9782 39.4834 15.8777C41.4184 18.6188 40.4735 21.9761 37.3609 23.4848C36.6771 23.8153 35.9981 24.1671 35.2288 24.2733Z" fill="#73619E"/>
<path d="M1.55743 13.2216C3.26212 11.3352 5.61735 11.3376 7.87761 11.0826C8.58038 11.0023 9.2974 11.0377 10.0049 11C11.1279 10.9409 11.2253 10.804 11.0591 9.60226C10.5035 7.92125 10.2138 6.19066 10.9475 4.53325C11.9399 2.28561 14.6299 1.86299 16.3037 3.25833C18.0963 4.75282 19.3926 7.03116 19.4709 7.19407C19.7535 7.76779 19.8105 7.64265 20.4657 9.98238C20.9762 12.0907 20.4824 14.1094 20.1001 16.1965C19.96 16.9685 19.5493 17.1881 18.8228 17.2707C15.2947 17.6697 11.8402 17.1857 8.39282 16.5223C6.2394 16.5152 4.15008 16.076 2.13199 15.389C1.00186 15.0042 0.821423 14.0314 1.55506 13.2216H1.55743Z" fill="#A3B239"/>
<path d="M7.67812 35.8327C7.36948 35.1315 6.72606 34.6947 6.2892 34.0903C4.17615 31.1721 3.81527 28.1312 5.58406 24.9226C5.71702 24.6818 5.87609 24.4575 6.03754 24.2356C6.10402 24.1435 6.20611 24.0727 6.40554 24.1836C6.18949 24.9722 5.92832 25.782 5.74551 26.6083C5.13296 29.4014 5.95206 31.7364 8.14347 33.5685C12.5097 37.2186 17.562 39.393 23.1486 40.3988C26.2469 41.126 29.3595 40.8851 32.4626 40.4767C38.6071 39.6692 44.2459 37.5113 49.4003 34.0926C49.8087 33.8211 50.2005 33.4316 50.7869 33.7031C49.2009 36.9163 39.0036 41.2346 29.5708 42.0208C21.6338 42.6818 14.2001 40.6184 7.6805 35.8327H7.67812Z" fill="#111111"/>
<path d="M30.4971 3.96427C29.0915 4.53326 27.686 5.10225 26.2804 5.67125C25.789 5.63583 25.2928 5.92151 24.7158 5.67125C25.0411 5.09989 25.5682 4.90629 26.0525 4.68672C30.4282 2.69878 34.9535 1.15943 39.7731 0.784036C45.8084 0.314203 51.6846 0.864309 57.0978 3.95246C61.4047 6.41023 63.4893 9.89739 62.5823 14.9026C61.229 19.7828 58.3894 23.6996 54.6785 27.1986C54.3081 26.6272 54.6548 26.3179 54.7996 26.0039C55.7137 24.0231 56.9791 22.2736 58.3775 20.602C59.9303 18.7463 60.9275 16.6285 61.115 14.1896C61.4237 10.1996 59.9517 7.12797 56.3713 5.15419C53.5531 3.48735 50.4524 2.70823 47.2377 2.30686C41.5324 1.59149 35.953 2.16757 30.4994 3.97135L30.4971 3.96427Z" fill="#121212"/>
<path d="M35.2285 24.2733C36.8074 23.3691 38.3245 22.4105 39.324 20.8122C40.1621 19.4711 40.1954 18.1702 39.3739 16.8268C38.4527 15.3158 37.1398 14.2014 35.7152 13.1957C35.6701 12.4685 36.1545 12.5275 36.5794 12.6857C38.3696 13.3444 40.0862 14.1353 41.3421 15.6464C41.836 16.2413 42.09 16.926 42.1066 17.7051C42.1874 21.0553 38.6165 24.4717 35.2285 24.2757V24.2733Z" fill="#111111"/>
<path d="M20.2759 9.91863C19.7536 9.86197 19.6159 9.41102 19.3974 9.05216C18.4762 7.54586 17.517 6.06789 16.2611 4.80949C16.0949 4.64186 15.9406 4.46243 15.7601 4.31133C14.8888 3.59359 13.9296 2.92307 12.7686 3.41416C11.6076 3.9076 11.2016 5.03142 11.1066 6.2001C11.0164 7.32865 11.0687 8.46664 11.0592 9.5999C10.8051 9.72975 10.6793 9.57393 10.6294 9.37325C10.2875 8.00388 9.95515 6.61799 10.1807 5.20141C10.5155 3.10015 12.2866 1.96452 14.4614 2.45324C16.9852 3.01987 17.6737 4.7245 18.8157 6.83993C19.3001 7.73709 19.8105 8.68384 20.2759 9.91627V9.91863Z" fill="#121212"/>
<path d="M21.4655 20.51C22.3558 22.8308 24.1555 24.1695 26.4015 25.0194C26.8764 25.1988 27.3631 25.3476 27.845 25.5105C25.5943 25.8505 23.5287 25.3287 21.6911 24.042C20.7319 23.3714 20.6796 22.224 20.5609 21.1734C20.4968 20.602 20.428 20.0071 20.6939 19.2988C20.9883 19.7592 21.2257 20.1346 21.4655 20.51Z" fill="#121212"/>
<path d="M1.55757 13.2216C1.47922 14.3455 2.03716 14.9546 3.10081 15.2568C4.84824 15.755 6.61704 16.1516 8.39533 16.5199C5.76944 16.7867 3.2314 16.4326 0.804939 15.3961C0.325346 15.1907 -0.123382 14.82 0.0309426 14.2227C0.223255 13.4813 0.800191 13.1815 1.55757 13.2193V13.2216Z" fill="#131313"/>
</g>
<defs>
<clipPath id="clip0_164_229">
<rect width="63" height="41.5059" fill="white" transform="translate(0 0.635292)"/>
</clipPath>
</defs>
</svg>
