<svg width="123" height="123" viewBox="0 0 123 123" fill="none" xmlns="http://www.w3.org/2000/svg">
<rect x="0.760254" y="0.578979" width="121.506" height="121.506" rx="25" fill="#F6F5ED"/>
<g clip-path="url(#clip0_240_558)">
<path d="M81.1983 60.9633C81.1983 61.7388 81.1691 62.4192 81.2032 63.0946C81.2761 64.5806 81.4414 66.0565 81.4657 67.5424C81.5191 70.5943 79.0546 72.9557 76.1185 72.5755C74.1837 72.3253 72.6428 71.3047 72.0303 69.2835C71.831 68.6281 71.9525 67.8526 72.006 67.1371C72.1178 65.5962 72.5066 64.0752 72.1518 62.5093C72.0157 61.9139 72.0157 61.2835 71.9282 60.6782C71.9039 60.508 71.7969 60.348 71.7289 60.1828C71.5928 60.2979 71.4372 60.398 71.3254 60.5381C70.0323 62.2041 68.8219 63.9452 67.4462 65.5311C65.0448 68.2979 62.206 70.5392 59.09 72.4054C58.6768 72.6505 58.565 72.8607 58.8421 73.311C60.4705 75.9326 61.8073 78.7143 62.8914 81.6111C63.4796 83.182 63.9754 84.798 64.4178 86.424C64.8455 88 65.181 89.601 65.5018 91.207C65.6914 92.1526 65.8129 93.1182 65.9053 94.0788C66.056 95.6798 66.2261 97.2858 66.2698 98.8917C66.3282 100.933 64.7775 102.549 62.7941 102.559C58.8372 102.579 54.8803 102.579 50.9282 102.559C49.0178 102.549 47.5886 101.138 47.4233 99.1869C47.3164 97.9161 47.3164 96.6303 47.0879 95.3846C46.7573 93.5935 46.2955 91.8274 45.8289 90.0663C45.3039 88.0801 44.4191 86.2489 43.4275 84.4678C42.8053 83.3521 42.1053 82.2815 41.5316 81.1408C40.7879 79.6699 40.4525 78.0889 40.4087 76.4179C40.3358 73.5611 41.1622 71.0295 42.8636 68.8032C44.3948 66.8019 46.383 65.4811 48.7698 64.8107C52.7705 63.69 56.3337 61.7638 59.3768 58.827C61.6323 56.6507 63.4115 54.1291 64.7386 51.2623C64.8844 50.9471 64.9768 50.5969 65.1518 50.3017C65.4386 49.8164 65.1907 49.6313 64.7921 49.5063C63.3094 49.031 61.8073 48.9409 60.3247 49.4262C59.4205 49.7214 58.5455 50.1467 57.6997 50.5919C55.9935 51.4875 54.331 51.5125 52.7414 50.3818C51.2004 49.2861 50.5928 47.6951 50.8553 45.809C51.0448 44.4281 51.7886 43.3525 52.9261 42.597C54.574 41.5013 56.3386 40.6358 58.215 40.0604C59.4594 39.6802 60.7428 39.44 61.9969 39.0998C62.2303 39.0348 62.5025 38.8697 62.6337 38.6646C63.8053 36.7784 65.5066 35.6627 67.6018 35.3225C69.7164 34.9823 71.6803 35.5176 73.3865 36.9335C75.9872 39.0948 78.3351 41.5163 80.3379 44.263C81.5094 45.864 82.54 47.5801 83.5754 49.2811C84.149 50.2217 84.8247 51.0422 85.6365 51.7576C87.4935 53.4037 89.3504 55.0497 91.2025 56.7057C92.6657 58.0165 93.1323 59.7426 92.7386 61.5987C92.34 63.4949 91.1393 64.8107 89.2532 65.326C87.508 65.8013 85.9525 65.3861 84.6205 64.1503C83.6143 63.2197 82.6372 62.2491 81.6407 61.3035C81.524 61.1885 81.383 61.0984 81.1935 60.9483L81.1983 60.9633ZM56.8198 99.287C57.4566 99.287 58.0935 99.287 58.7303 99.287C59.9164 99.287 61.1025 99.292 62.2886 99.277C62.9448 99.267 63.0518 99.1569 63.0178 98.5015C62.974 97.636 62.9108 96.7704 62.8185 95.9149C62.6483 94.389 62.5073 92.858 62.2351 91.3521C61.9629 89.8512 61.5497 88.3702 61.1803 86.8893C60.5823 84.4929 59.756 82.1714 58.6622 79.9751C57.5393 77.7187 56.2511 75.5523 55.0212 73.356C54.3941 72.2353 54.5983 71.1696 55.6921 70.5643C58.4629 69.0283 61.0636 67.2472 63.3823 65.0358C65.5455 62.9746 67.4122 60.6631 68.9921 58.1066C70.3386 55.9302 71.3983 53.6038 72.2685 51.1873C72.5018 50.5369 72.6962 49.8665 72.4191 49.1811C72.1178 48.4356 71.3643 47.9503 70.6303 47.9903C69.8428 48.0353 69.2157 48.6007 68.8803 49.4912C68.4087 50.737 67.9615 51.9978 67.3879 53.1985C65.5796 56.9959 63.0421 60.1979 59.8094 62.8145C56.781 65.266 53.3879 66.947 49.6789 68.0077C46.3782 68.9483 44.3705 71.2497 43.724 74.6668C43.3546 76.618 43.6462 78.5942 44.7351 80.3153C46.8594 83.6723 48.5608 87.2195 49.5185 91.1269C50.0969 93.4734 50.4955 95.8499 50.5636 98.2714C50.5879 99.1719 50.6803 99.287 51.5504 99.287C53.3053 99.292 55.0601 99.287 56.815 99.287H56.8198ZM77.6935 57.9965C77.6935 57.9965 77.6837 57.9965 77.6789 57.9965C77.6789 57.8214 77.6886 57.6413 77.6789 57.4662C77.6108 56.5856 77.9851 55.9302 78.7435 55.595C79.4872 55.2698 80.2115 55.3949 80.8289 56.0003C81.6455 56.8058 82.4865 57.5862 83.3129 58.3817C84.4407 59.4624 85.5539 60.5681 86.7011 61.6287C87.8094 62.6594 89.0344 62.054 89.4573 60.9733C89.7247 60.2929 89.4719 59.5575 88.6844 58.852C87.1435 57.4762 85.5928 56.1103 84.0469 54.7445C82.9921 53.8139 81.8934 52.9084 81.1983 51.6476C78.6559 47.0197 75.4428 42.9872 71.4566 39.5951C70.1733 38.5045 68.2143 38.2843 66.8289 39.0598C65.9976 39.5201 65.4046 40.2055 65.0205 41.0861C64.7678 41.6664 64.3691 42.0967 63.7615 42.2318C62.9935 42.4019 62.2157 42.5219 61.4428 42.652C58.9879 43.0673 56.7615 44.0779 54.6615 45.4087C54.1025 45.7639 53.8886 46.6045 54.156 47.1948C54.4039 47.7452 55.0844 48.0253 55.7504 47.8252C55.9448 47.7652 56.1296 47.6651 56.3046 47.555C58.2247 46.3993 60.3004 45.784 62.5268 45.799C63.7615 45.809 64.9865 46.0091 66.1435 46.4894C66.5129 46.6445 66.8094 46.6295 67.14 46.2843C68.1316 45.2686 69.3469 44.8084 70.7615 44.8084C74.1448 44.8084 76.6191 48.2805 75.4962 51.7376C75.083 53.0034 74.5337 54.2242 74.0622 55.4699C73.9941 55.65 73.965 55.8802 74.0136 56.0603C74.2858 57.0409 74.6358 57.9965 74.874 58.9821C75.3796 61.0884 75.6226 63.2247 75.4039 65.3961C75.3164 66.2566 75.2191 67.1171 75.1414 67.9777C75.1268 68.1628 75.1268 68.3829 75.2094 68.538C75.4962 69.0733 76.4198 69.3835 77.0955 69.2084C77.7275 69.0433 78.1893 68.473 78.1941 67.7775C78.1941 67.1071 78.1601 66.4317 78.1261 65.7613C77.9803 63.1647 77.8296 60.5731 77.6837 57.9765L77.6935 57.9965Z" fill="#0F0F0F"/>
<path d="M29.8695 56.8657C29.7383 52.5081 33.3695 48.7708 37.657 48.7708C42.0272 48.7708 45.5369 52.428 45.5223 56.8157C45.5077 61.4086 42.0223 64.9357 37.657 64.9357C33.3452 64.9357 29.8209 61.3585 29.8647 56.8708L29.8695 56.8657ZM33.1313 56.7807C32.9466 59.4774 35.2897 61.6337 37.7348 61.6037C40.1605 61.5737 42.2556 59.5174 42.2994 56.9058C42.3383 54.2591 40.1556 52.0678 37.6522 52.0878C35.1536 52.1078 32.9709 54.3592 33.1313 56.7757V56.7807Z" fill="#0F0F0F"/>
<path d="M53.9414 28.4183C53.9609 24.6259 56.9747 21.594 60.6254 21.579C64.3053 21.564 67.3435 24.711 67.3143 28.4933C67.2852 32.3057 64.3004 35.3876 60.64 35.3675C56.9747 35.3475 53.9171 32.3057 53.9463 28.4233L53.9414 28.4183ZM57.1886 28.4333C57.0963 30.4445 58.856 32.0455 60.606 32.0205C62.6477 31.9905 64.0914 30.3995 64.0963 28.4783C64.1011 26.6372 62.774 24.9411 60.6254 24.9211C58.715 24.9011 57.1935 26.467 57.1886 28.4333Z" fill="#0F0F0F"/>
</g>
<defs>
<clipPath id="clip0_240_558">
<rect width="63" height="81" fill="white" transform="translate(29.8696 21.579)"/>
</clipPath>
</defs>
</svg>
