<svg width="123" height="122" viewBox="0 0 123 122" fill="none" xmlns="http://www.w3.org/2000/svg">
<rect x="0.760254" y="0.0726318" width="121.506" height="121.506" rx="25" fill="#F6F5ED"/>
<g clip-path="url(#clip0_240_550)">
<path d="M69.5949 37.6207C71.3109 37.1615 74.0403 38.6009 75.3472 39.6693C77.2054 41.1881 78.2812 43.4929 79.6592 45.409C82.3353 49.1354 84.8514 52.9413 87.4653 56.7118C88.8878 58.7693 90.3014 60.8179 91.7862 62.8312C93.1287 64.6414 94.3645 66.6812 93.9022 69.0213C93.0486 73.3481 87.3675 73.9486 84.807 70.8756C81.8908 67.3612 79.4903 63.2374 76.9209 59.458C75.7118 57.6743 74.6449 55.7758 73.3468 54.0539C72.52 52.9589 72.2355 53.3033 71.2131 54.0804C70.0573 54.9634 68.9193 55.8729 67.7635 56.7648C66.7321 57.5507 63.1403 59.202 64.385 60.5707C65.0429 61.2947 66.4565 61.7627 67.3011 62.3279C68.4836 63.1226 69.7639 63.9262 70.8396 64.8622C72.6534 66.4516 72.6978 68.5179 72.3866 70.7432C72.0399 73.2686 71.7643 75.7941 71.382 78.3107C71.0352 80.6331 70.6441 82.9378 70.3418 85.269C70.0573 87.4589 70.1462 90.1169 69.106 92.1037C67.1411 95.8654 61.4066 95.883 59.0861 92.4745C57.8236 90.6202 58.1437 87.9446 58.4638 85.8518C58.8194 83.5559 59.2017 81.2777 59.4595 78.973C59.5751 77.9399 59.6996 76.9067 59.8507 75.8736C59.993 74.8493 60.5709 73.4452 60.3486 72.4209C60.0374 70.9639 57.3347 69.8336 56.1522 69.0831C55.5476 68.7034 54.2407 67.5378 53.4939 67.476C52.5248 67.3877 52.267 68.6151 51.9113 69.3127C50.7555 71.5997 49.6175 73.9221 48.3906 76.165C46.159 80.2711 44.1764 84.5008 41.9093 88.5804C41.0024 90.214 40.2111 92.3686 38.7709 93.596C36.8505 95.2384 34.0677 95.4062 31.8628 94.2229C30.1113 93.2869 29.1244 91.3443 29 89.4369C28.8666 87.2735 30.378 84.9776 31.3738 83.1144C36.3348 73.8868 41.2514 64.6061 46.0523 55.299C47.297 52.8795 48.3817 51.2459 50.5599 49.5769C52.5515 48.0493 54.5608 46.557 56.6056 45.1C58.8372 43.5105 61.1043 41.8946 63.2114 40.1373C64.7673 38.8393 67.3989 37.0909 69.5861 37.5942L69.5949 37.6207ZM72.9023 49.5504C74.6893 50.0891 75.2494 51.3077 76.2185 52.8353C77.241 54.4601 78.4234 55.9966 79.5259 57.5684C81.6596 60.6148 83.9623 63.6613 85.8827 66.849C86.434 67.7674 87.3675 69.7365 88.63 69.8601C90.1325 70.0103 91.2883 68.2 90.7548 66.9196C90.1769 65.5333 88.8433 64.0675 87.9543 62.8577C86.7718 61.2418 85.7138 59.5728 84.5669 57.9392C82.6376 55.1842 80.7083 52.4203 78.7879 49.6564C77.1521 47.2987 75.6317 44.3141 73.5157 42.3537C68.2169 37.4353 61.62 45.5238 57.5836 48.4731C56.25 49.4445 54.9875 50.5218 53.6539 51.4931C52.507 52.3232 51.3334 52.9854 50.4088 54.098C48.4795 56.4292 48.9063 60.0232 51.1645 62.01C53.4583 64.0321 56.5078 65.551 59.0861 67.2022C60.3664 68.0234 62.3223 68.8182 63.2203 70.0632C64.056 71.2112 63.4515 72.6858 63.2737 73.9751C62.7936 77.5513 62.3846 81.1364 61.9223 84.7127C61.6289 86.9379 60.1352 90.5142 63.0425 91.6798C66.5543 93.0838 66.8833 88.3508 67.1678 86.1609C67.6479 82.5581 67.9413 78.9112 68.5103 75.3173C68.7948 73.5247 69.2304 71.7145 69.3371 69.9043C69.4527 67.9793 69.0348 67.4583 67.4612 66.3545C66.0831 65.3743 64.6606 64.4383 63.2203 63.5376C62.1268 62.8489 60.3042 62.0012 59.7885 60.7296C59.1928 59.2549 60.6331 58.1688 61.7 57.3741C62.9447 56.4557 64.1183 55.4844 65.3896 54.5837C66.91 53.5064 68.2436 52.2172 69.7905 51.1664C70.6174 50.6012 71.7998 49.3385 72.9023 49.5504ZM34.9745 91.9006C37.5617 92.1831 38.9309 87.141 39.8288 85.375C41.278 82.5405 42.8428 79.7677 44.3631 76.9774C45.9545 74.0545 47.5104 71.0522 48.9685 68.0588C49.7153 66.5311 50.5688 65.8777 49.2797 64.5796C48.7551 64.0498 47.4304 61.7274 46.7191 61.7098C45.8212 61.6921 45.3411 63.5818 44.9232 64.3147C44.1497 65.6746 43.4829 67.0698 42.7895 68.465C41.358 71.4054 39.7222 74.2753 38.1841 77.154C36.5926 80.121 34.9834 83.0968 33.4542 86.0991C32.8407 87.2912 31.9428 88.6599 32.414 90.0374C32.8052 91.1853 33.7565 91.8917 34.9745 91.9006Z" fill="#0F0F0F"/>
<path d="M85.0737 42.2919C80.3616 42.3449 76.8764 38.4507 76.8498 34.2563C76.8231 29.8058 80.2016 26.0529 84.9848 26C89.9991 25.947 93.3687 29.6116 93.3598 34.2121C93.3598 38.6361 89.8124 42.4155 85.0648 42.283L85.0737 42.2919ZM90.1947 33.9914C90.4881 31.3511 87.572 29.0288 85.0737 29.0023C82.122 28.9758 80.006 31.8191 80.2016 34.5389C80.4061 37.3027 83.1888 39.7311 86.0694 39.1218C88.4788 38.6096 90.3992 36.4904 90.1947 33.9914Z" fill="#0F0F0F"/>
<path d="M47.9992 33.3821C47.9903 32.6934 48.4259 31.9604 49.1816 31.9604C50.044 31.9604 50.8175 33.1349 51.2976 33.7353C51.9466 34.5477 52.489 35.4219 53.1024 36.2608C53.6537 37.0114 54.7561 37.9121 54.8539 38.8922C54.9428 39.8371 54.2671 40.4552 53.3247 40.2168C52.4801 40.0049 52.0444 39.06 51.5643 38.4331C50.293 36.7465 48.9682 35.2806 47.9992 33.3821Z" fill="#0F0F0F"/>
<path d="M58.2949 36.6406C58.5261 35.3248 58.7572 34.018 58.9262 32.6934C59.0417 31.7927 58.9884 30.5565 59.4329 29.7264C59.7975 29.0377 60.4287 28.6668 61.1933 29.1525C62.0913 29.7264 61.8156 30.839 61.6734 31.7044C61.4689 32.8612 61.2555 34.0091 61.0955 35.1836C60.9888 35.9518 61.1488 37.8591 60.5621 38.4243C60.2153 38.7598 59.0773 38.8658 58.6683 38.5214C58.1705 38.1064 58.366 37.2057 58.366 36.6582C58.3483 36.6582 58.3216 36.6494 58.3038 36.6406H58.2949Z" fill="#0F0F0F"/>
<path d="M43.4743 41.8592C45.5014 42.1506 47.5285 42.442 49.5378 42.8482C50.3113 43.0072 51.4137 43.0513 51.6449 43.9697C51.9205 45.047 50.9514 45.409 50.1157 45.409C48.0441 45.3914 45.6792 44.7997 43.6521 44.3935C42.8253 44.2258 41.9006 44.0315 41.9273 42.9719C41.9451 42.0977 42.6741 41.8504 43.4743 41.8592Z" fill="#0F0F0F"/>
</g>
<defs>
<clipPath id="clip0_240_550">
<rect width="65" height="69" fill="white" transform="translate(29 26)"/>
</clipPath>
</defs>
</svg>
