<svg width="123" height="122" viewBox="0 0 123 122" fill="none" xmlns="http://www.w3.org/2000/svg">
<rect x="0.760254" y="0.0854492" width="121.506" height="121.506" rx="25" fill="#F6F5ED"/>
<g clip-path="url(#clip0_247_616)">
<path d="M75.187 91.2172C75.0788 92.3148 74.9736 93.3576 74.8713 94.4003C74.7781 95.3242 74.706 96.2511 74.5917 97.1719C74.4865 98.0073 73.7078 98.5531 72.8449 98.4372C72.0482 98.3336 71.477 97.5683 71.5642 96.7298C71.7596 94.7906 71.952 92.8514 72.1534 90.836C71.5311 90.7141 70.9057 90.5982 70.2834 90.4671C68.257 90.0433 66.2005 89.7353 64.2162 89.1621C61.33 88.3267 58.9638 86.6497 57.3012 84.0581C57.0427 83.6525 56.8172 83.2135 56.6398 82.7653C56.3331 81.9939 56.6879 81.1523 57.4185 80.8078C58.134 80.4694 59.048 80.7407 59.3908 81.4786C60.7587 84.4209 63.2481 85.8234 66.1945 86.5003C68.7801 87.0949 71.3988 87.5705 74.0205 87.9822C75.5598 88.223 77.1322 88.2322 78.6926 88.348C79.9494 88.4395 81.2091 88.5218 82.4658 88.6285C83.461 88.7139 84.0863 88.0706 84.0112 87.0583C83.8939 85.4789 83.7917 83.8965 83.7195 82.314C83.7045 82.0122 83.8157 81.6829 83.936 81.3963C84.399 80.3078 84.9011 79.2345 85.3641 78.146C85.4453 77.9539 85.4693 77.7009 85.4242 77.4996C84.9973 75.6641 84.5493 73.8347 84.1074 72.0053C83.8187 70.8131 84.4832 69.9441 85.6948 69.9411C87.2582 69.935 88.8216 69.9411 90.385 69.9411C90.5654 69.9411 90.7428 69.9411 90.9803 69.9411C90.9352 69.7765 90.9081 69.6545 90.866 69.5356C89.6334 66.139 88.3947 62.7454 87.174 59.3458C87.0538 59.0104 86.9936 58.6353 86.9876 58.2786C86.9606 56.2998 87.0628 54.3118 86.9275 52.3391C86.2119 41.7956 79.6667 33.4504 69.2521 31.3161C68.254 31.1118 67.2318 31.0447 66.2186 30.9106C65.936 30.874 65.6443 30.8588 65.3797 30.7642C64.7063 30.5264 64.2914 29.7794 64.4116 29.0903C64.5409 28.3464 65.1543 27.7305 65.8818 27.8067C67.5505 27.9866 69.2491 28.0933 70.8606 28.5141C80.9265 31.1423 87.0057 37.7404 89.3928 47.9272C90.1324 51.0829 90.1565 54.2966 90.0543 57.5163C90.0392 57.9706 90.1234 58.4585 90.2768 58.8884C91.4703 62.2332 92.691 65.5688 93.9056 68.9075C94.6422 70.929 93.2803 72.9718 91.1577 73.0115C90.1054 73.0298 89.0531 73.0145 88.0008 73.0176C87.8535 73.0176 87.7062 73.0176 87.5047 73.0176C87.7904 74.2097 88.0008 75.3623 88.3526 76.466C88.7104 77.5972 88.6833 78.6217 88.064 79.6492C87.7934 80.1004 87.6761 80.6462 87.3995 81.0944C86.7651 82.1158 86.7802 83.2104 86.8884 84.3447C86.9816 85.3143 87.0417 86.2899 87.0508 87.2656C87.0808 90.0768 84.7177 92.0831 81.9667 91.6959C80.5717 91.5007 79.1526 91.4794 77.7426 91.3849C76.9037 91.3269 76.0679 91.2751 75.175 91.2141L75.187 91.2172Z" fill="#222222"/>
<path d="M37.7649 54.5527C35.5311 52.7904 33.3393 51.0585 31.1476 49.3297C30.6034 48.8998 30.0532 48.476 29.515 48.0369C28.9679 47.5918 28.7815 46.9119 29.013 46.2746C29.2505 45.6221 29.8037 45.2166 30.5162 45.2745C31.7579 45.3782 32.9936 45.5337 34.2323 45.6709C36.2767 45.8996 38.3181 46.1344 40.3626 46.3661C42.6896 46.6283 45.0167 46.8905 47.3437 47.1558C48.1946 47.2533 49.0424 47.354 49.8932 47.4485C50.5427 47.5217 50.9846 47.8784 51.18 48.4973C51.3755 49.1132 51.2312 49.6651 50.7712 50.1286C49.8842 51.0189 49.0093 51.9183 48.1224 52.8117C48.0172 52.9184 47.8909 53.0038 47.7225 53.138C48.0563 53.4093 48.3178 53.6258 48.5824 53.8362C51.0357 55.7723 53.4921 57.7054 55.9454 59.6415C56.5707 60.1355 56.7782 60.8184 56.5196 61.4984C56.2671 62.157 55.6718 62.5503 54.9051 62.471C53.1583 62.2942 51.4145 62.0838 49.6678 61.8886C47.6384 61.66 45.612 61.4313 43.5826 61.1996C41.2555 60.9373 38.9285 60.6721 36.6014 60.4099C36.2737 60.3733 35.946 60.3367 35.6183 60.294C34.9929 60.2147 34.569 59.8671 34.3616 59.2665C34.1511 58.6597 34.2924 58.117 34.7253 57.6688C35.6393 56.7206 36.5714 55.7906 37.4944 54.8515C37.5785 54.7661 37.6537 54.6747 37.7649 54.5527ZM46.4207 50.1682C42.8069 49.7596 39.3103 49.3663 35.6844 48.9577C35.8708 49.1132 35.946 49.1834 36.0272 49.2474C37.6627 50.5371 39.3013 51.8269 40.9368 53.1197C41.7817 53.7874 41.8568 54.7966 41.1082 55.5772C40.555 56.1565 39.9807 56.7205 39.4215 57.2938C39.3464 57.37 39.2862 57.4676 39.196 57.5834C42.7437 57.9828 46.2313 58.3731 49.7189 58.7664C48.5163 57.7145 47.2956 56.7541 46.075 55.7906C45.5518 55.379 45.0257 54.9765 44.5146 54.5496C43.763 53.9246 43.7028 52.9337 44.3823 52.2232C45.0257 51.5494 45.6931 50.9 46.4237 50.1652L46.4207 50.1682Z" fill="#222222"/>
<path d="M62.4965 43.119C62.6078 44.0581 62.707 44.9301 62.8152 45.8052C63.1309 48.3572 63.4526 50.9093 63.7713 53.4613C63.8435 54.0467 63.7713 54.5925 63.3143 55.0132C62.6198 55.6535 61.6367 55.5499 61.0173 54.7663C58.9699 52.1746 56.9255 49.5768 54.881 46.9821C52.9388 44.5185 50.9966 42.0519 49.0514 39.5943C48.7237 39.1797 48.5373 38.7345 48.6485 38.2009C48.8018 37.46 49.4061 36.9569 50.1638 36.9539C51.4265 36.9448 52.6893 36.9539 53.952 36.9539C54.1144 36.9539 54.2767 36.9539 54.4781 36.9539C54.3398 35.8197 54.2106 34.7373 54.0783 33.6549C53.7806 31.2217 53.477 28.7917 53.1883 26.3586C53.1042 25.6573 53.48 25.0475 54.1023 24.7822C54.7517 24.5047 55.4342 24.6694 55.9183 25.2762C57.1389 26.8037 58.3445 28.3435 59.5562 29.8771C62.3342 33.3987 65.1152 36.9204 67.8962 40.442C68.2089 40.8353 68.4254 41.2591 68.3442 41.7805C68.2119 42.6037 67.6287 43.1099 66.7748 43.119C65.5572 43.1312 64.3395 43.1221 63.1219 43.1221C62.9445 43.1221 62.7641 43.1221 62.5056 43.1221L62.4965 43.119ZM59.9951 48.5005C60.0192 48.4883 60.0402 48.4761 60.0643 48.4609C59.932 47.3754 59.7997 46.293 59.6674 45.2076C59.5261 44.0581 59.3577 42.9147 59.2585 41.7622C59.1683 40.7194 59.8087 40.0487 60.8339 40.0395C61.2699 40.0334 61.7058 40.0395 62.1418 40.0395C62.6138 40.0395 63.0858 40.0395 63.651 40.0395C61.3841 37.1673 59.1924 34.3866 56.9976 31.609C57.172 33.7768 57.4125 35.8928 57.6981 38.0028C57.8695 39.2833 57.2411 40.0639 55.9573 40.0639C55.1215 40.0639 54.2857 40.0639 53.3417 40.0639C55.6026 42.933 57.8003 45.7168 59.9951 48.5005Z" fill="#222222"/>
<path d="M38.8712 64.0869C39.6499 64.0869 40.2121 64.5717 40.4075 65.4224C40.8164 67.2061 41.3876 68.9288 42.1723 70.5783C42.9179 72.1485 43.8379 73.6029 44.9654 74.9262C45.8553 75.9689 46.5769 77.1215 47.1301 78.3807C47.5239 79.2741 47.2263 80.1735 46.4175 80.5486C45.6058 80.9236 44.803 80.5364 44.334 79.6796C43.8139 78.7253 43.2847 77.7496 42.5993 76.9202C39.9475 73.7096 38.2999 70.0295 37.392 65.9773C37.1695 64.9833 37.882 64.0869 38.8712 64.09V64.0869Z" fill="#222222"/>
<path d="M44.821 98.4586C43.9101 98.4586 43.1675 97.5987 43.3178 96.6871C43.6305 94.7845 43.9552 92.885 44.2829 90.9824C44.4332 90.1073 45.2359 89.5158 46.0417 89.6682C46.9196 89.8359 47.4427 90.5951 47.2924 91.5159C46.9857 93.388 46.6731 95.2601 46.3544 97.1322C46.2161 97.9494 45.6148 98.4555 44.821 98.4586Z" fill="#222222"/>
</g>
<defs>
<clipPath id="clip0_247_616">
<rect width="65.1994" height="73.8107" fill="white" transform="translate(28.9136 24.6479)"/>
</clipPath>
</defs>
</svg>
