<svg width="123" height="123" viewBox="0 0 123 123" fill="none" xmlns="http://www.w3.org/2000/svg">
<rect x="0.760254" y="0.566284" width="121.506" height="121.506" rx="25" fill="#F6F5ED"/>
<g clip-path="url(#clip0_240_533)">
<path d="M63.1868 59.3131C60.878 58.9227 58.8974 58.0893 57.343 56.3936C54.9528 53.7831 54.3253 50.7318 55.2737 47.4028C56.2221 44.0689 58.5094 41.9565 61.8648 41.1494C63.0407 40.8668 64.3173 40.8764 65.5387 40.9434C67.9145 41.0728 69.9144 40.371 71.5933 38.673C74.5104 35.7247 77.4539 32.8004 80.3877 29.8665C80.6416 29.6127 80.8811 29.3373 81.1661 29.1241C81.8726 28.5972 82.7803 28.6475 83.3503 29.2103C83.9515 29.8019 84.009 30.6353 83.4701 31.3802C83.2617 31.6676 82.9959 31.9191 82.7444 32.1729C79.8968 35.023 77.0275 37.8515 74.2038 40.7279C71.804 43.1732 68.9444 44.3731 65.5052 44.1983C64.5544 44.1504 63.5652 44.0737 62.6503 44.2725C59.7117 44.912 57.7621 47.8458 58.1645 50.8372C58.586 53.9579 61.1654 56.1661 64.2885 56.0344C65.5219 55.9817 66.753 55.7518 67.9816 55.7829C68.5372 55.7973 69.2677 56.1182 69.5767 56.5469C69.8497 56.9229 69.8449 57.7612 69.5958 58.1779C69.3444 58.5994 68.6666 58.8269 68.1325 59.0018C67.699 59.1431 67.1984 59.0784 66.5542 59.1143C66.6308 59.5814 66.6428 59.9598 66.7578 60.3071C67.687 63.1427 70.585 64.8408 73.5572 64.3115C76.2755 63.8253 78.3568 61.2603 78.3927 58.4318C78.4142 56.8439 78.3975 55.2392 78.6346 53.6777C78.9172 51.8287 79.8752 50.2456 81.1972 48.914C84.3491 45.7454 87.5033 42.5816 90.6839 39.4442C91.0263 39.1065 91.5508 38.7376 91.9796 38.7544C92.4993 38.7736 93.2489 39.0562 93.4549 39.4538C93.6944 39.916 93.565 40.6656 93.3806 41.2189C93.2441 41.6308 92.7723 41.9374 92.4346 42.2775C89.5869 45.1275 86.7369 47.9776 83.8868 50.8252C82.0163 52.6933 81.2763 54.8967 81.602 57.5576C82.0211 60.9609 80.2249 64.8025 76.7593 66.582C73.3297 68.3423 68.9947 67.8202 66.2668 65.3294C64.5136 63.7295 63.5604 61.7297 63.1892 59.3155L63.1868 59.3131Z" fill="#222222"/>
<path d="M55.1225 64.0313C55.1225 60.8076 50.6438 57.0642 46.2394 59.7131C44.321 60.8675 43.3654 62.6302 43.3463 64.8863C43.3343 66.2802 43.4397 67.6932 43.2409 69.0608C42.9152 71.2953 41.7632 73.1562 40.1657 74.7489C37.1695 77.7355 34.183 80.7316 31.1892 83.723C30.9928 83.9194 30.7893 84.1206 30.5593 84.2715C29.836 84.7457 29.0337 84.6834 28.4733 84.1373C27.9392 83.6176 27.8697 82.5902 28.3559 81.9339C28.5667 81.6489 28.8421 81.4094 29.096 81.1555C32.0299 78.2193 34.9614 75.2782 37.9024 72.3515C39.7538 70.5097 40.4339 68.3279 40.1441 65.7221C39.5957 60.7956 43.2241 56.178 48.2584 55.699C53.4723 55.2033 57.5175 58.4341 58.4108 63.2505C58.5402 63.9426 58.897 64.0169 59.4479 64.1247C63.6176 64.9462 66.6497 68.5051 66.8556 72.5287C67.1071 77.393 63.9505 81.213 59.8742 82.1016C58.8803 82.3195 57.8145 82.3914 56.8014 82.298C54.1238 82.0561 51.8725 82.7865 49.9708 84.7289C47.0657 87.6939 44.1031 90.6038 41.162 93.5329C40.9082 93.7844 40.6591 94.0598 40.3573 94.2419C39.6651 94.661 38.9658 94.5963 38.391 94.0239C37.821 93.4563 37.7036 92.7665 38.1347 92.0624C38.3192 91.763 38.5898 91.5092 38.8413 91.2577C41.8566 88.2328 44.8719 85.2079 47.8968 82.195C50.3732 79.7281 53.3622 78.727 56.8254 79.1294C60.3867 79.5413 63.4451 76.9523 63.6344 73.3574C63.814 69.9972 60.9543 67.1232 57.4433 67.1855C56.2098 67.207 54.9788 67.3795 53.7454 67.4322C52.6006 67.4801 51.8773 66.8741 51.8366 65.9233C51.8006 65.0563 52.4209 64.448 53.5226 64.2779C54.0304 64.1989 54.5381 64.1223 55.1129 64.0337L55.1225 64.0313Z" fill="#222222"/>
<path d="M60.9302 89.768C59.862 89.677 58.7819 89.6459 57.7257 89.4782C56.8036 89.3321 56.2863 88.6112 56.3653 87.8113C56.4563 86.9179 57.091 86.3886 58.0873 86.3599C60.3123 86.2952 62.566 86.4222 64.755 86.1108C70.7473 85.2606 75.6834 82.3746 79.6663 77.8361C79.9034 77.5655 80.1238 77.2804 80.3777 77.029C81.0339 76.3847 82.0063 76.3153 82.6337 76.847C83.2732 77.3906 83.4433 78.3965 82.8325 79.0911C81.6231 80.4634 80.4232 81.8765 79.0317 83.0524C73.8225 87.4568 67.7632 89.6483 60.9278 89.7656L60.9302 89.768Z" fill="#222222"/>
<path d="M65.3731 35.3296C65.3588 36.3235 64.5037 37.0228 63.402 36.9103C57.1463 36.2732 51.4414 37.7916 46.3879 41.4943C44.6683 42.7541 43.1858 44.3563 41.6746 45.882C40.7549 46.8112 39.9047 47.0795 39.0927 46.4232C38.3623 45.8341 38.3862 44.6845 39.1622 43.7576C43.9259 38.0647 50.0092 34.7093 57.3475 33.7608C59.4647 33.4878 61.6441 33.665 63.7924 33.7034C64.7217 33.7201 65.3851 34.4889 65.3731 35.3296Z" fill="#222222"/>
<path d="M39.1982 54.0968C38.8941 54.5087 38.657 55.1626 38.2474 55.2991C37.7205 55.4763 36.8487 55.4715 36.4823 55.1434C34.8824 53.7184 33.3808 52.176 31.9078 50.6145C31.3307 50.0013 31.4744 48.9954 32.0444 48.4494C32.6024 47.9153 33.6227 47.8243 34.2238 48.3967C35.7494 49.8504 37.2319 51.3521 38.6929 52.8705C38.942 53.1292 38.9923 53.5747 39.1982 54.0944V54.0968Z" fill="#222222"/>
<path d="M90.5685 59.3107C91.5648 59.3107 92.5635 59.2916 93.5574 59.3155C94.6017 59.3395 95.289 59.9646 95.3202 60.8699C95.3489 61.7273 94.7549 62.4865 93.7826 62.5224C91.7133 62.5967 89.6368 62.5991 87.5651 62.5272C86.5113 62.4913 85.9581 61.756 86.0204 60.786C86.0802 59.8544 86.6335 59.349 87.6969 59.3179C88.6525 59.2892 89.6105 59.3131 90.5685 59.3107Z" fill="#222222"/>
<path d="M90.3144 73.7909C90.0079 74.2004 89.7684 74.7297 89.3588 75.0171C88.8008 75.4099 88.1014 75.3572 87.5913 74.8638C86.0465 73.367 84.5089 71.8605 83.0264 70.3014C82.4492 69.6954 82.5762 68.6823 83.1486 68.1339C83.7425 67.5639 84.6742 67.4824 85.316 68.0932C86.8464 69.5469 88.3337 71.051 89.7995 72.5718C90.0486 72.8305 90.106 73.2735 90.3168 73.7909H90.3144Z" fill="#222222"/>
<path d="M31.0457 63.8948C30.011 63.8948 28.9716 63.9475 27.9417 63.8804C26.9406 63.8133 26.3754 63.1499 26.4161 62.2542C26.4544 61.3776 27.0939 60.7573 28.0783 60.7453C30.0685 60.719 32.0611 60.719 34.0514 60.7453C35.1196 60.7597 35.6656 61.277 35.7183 62.2135C35.7734 63.2122 35.2441 63.8349 34.152 63.8972C33.1197 63.957 32.0827 63.9091 31.0481 63.9091C31.0481 63.9044 31.0481 63.8996 31.0481 63.8948H31.0457Z" fill="#222222"/>
</g>
<defs>
<clipPath id="clip0_240_533">
<rect width="68.9067" height="65.7572" fill="white" transform="translate(26.4136 28.7552)"/>
</clipPath>
</defs>
</svg>
