<svg width="123" height="122" viewBox="0 0 123 122" fill="none" xmlns="http://www.w3.org/2000/svg">
<rect x="0.760254" y="0.0981445" width="121.506" height="121.506" rx="25" fill="#F6F5ED"/>
<g clip-path="url(#clip0_247_618)">
<path d="M53.7214 105.796C51.1551 105.697 48.6064 105.377 46.0518 105.091C45.2277 104.998 44.4096 104.724 43.6149 104.456C42.7615 104.171 42.4671 103.553 42.5849 102.674C43.097 98.8288 43.6091 94.978 44.0858 91.1273C44.5803 87.1134 44.7686 83.0821 44.8157 79.0449C44.8275 78.1128 45.0924 77.6468 45.6633 77.4778C46.6169 77.1982 47.4527 77.7516 47.4586 78.7362C47.4703 80.0178 47.4409 81.2994 47.3644 82.5753C47.2114 85.0745 47.076 87.5736 46.8111 90.067C46.4108 93.8304 45.9046 97.5821 45.4279 101.334C45.2984 102.324 45.3396 102.406 46.352 102.557C49.401 103.017 52.4735 103.25 55.552 103.245C60.2197 103.233 64.8874 103.215 69.5492 103.093C71.8389 103.035 74.1227 102.732 76.4065 102.522C77.1952 102.446 77.2776 102.342 77.2718 101.532C77.2423 97.4598 78.0193 93.5449 79.6909 89.8223C80.2619 88.5465 81.0094 87.3523 81.551 86.0648C83.4698 81.48 82.2102 76.1379 77.8898 73.0445C75.7119 71.4832 73.3281 70.4172 70.7264 69.8055C70.0554 69.6482 69.6433 69.1705 69.661 68.5355C69.6787 67.8714 70.1378 67.3587 70.8029 67.2538C71.2267 67.1839 71.6623 67.1548 72.0743 67.0441C73.1691 66.7528 73.6577 65.9605 73.4752 64.8362C73.228 63.3274 72.3922 62.2263 71.1679 61.3233C69.8023 60.3155 68.3896 59.3426 67.183 58.1717C66.147 57.1697 65.2582 55.9696 64.5165 54.7287C64.028 53.9073 63.875 52.8704 63.6572 51.9091C63.2275 50.0158 62.3681 48.437 60.6376 47.3884C57.8535 45.7048 53.8274 46.4155 51.8143 48.9672C51.1609 49.7944 50.6901 50.7207 50.5429 51.746C50.2133 54.0471 49.4599 56.2317 48.7947 58.4455C48.1178 60.6942 47.4174 62.9312 46.7876 65.1916C46.4344 66.4557 46.8288 67.5859 47.7764 68.483C50.3075 70.889 52.8679 73.2717 55.4166 75.6602C57.465 77.5827 59.5192 79.5051 61.5558 81.4393C62.2975 82.1442 63.1274 82.4937 64.1693 82.2898C65.8645 81.9519 66.7709 79.9654 65.8586 78.5031C65.6349 78.1478 65.3347 77.8274 65.0345 77.5244C61.8207 74.2854 58.601 71.0463 55.3754 67.8189C54.8103 67.2538 54.7397 66.6188 55.0634 65.9547C56.635 62.7215 58.2302 59.4999 59.8253 56.2783C60.1373 55.6492 60.7612 55.4162 61.3498 55.6608C62.0385 55.9521 62.427 56.7327 62.1327 57.3852C61.6618 58.428 61.1379 59.4533 60.6317 60.4786C59.7135 62.3487 58.8011 64.2129 57.8711 66.0771C57.6769 66.4674 57.877 66.6888 58.1242 66.9334C60.0725 68.8792 62.0149 70.825 63.9574 72.7765C65.0993 73.9242 66.2529 75.066 67.3654 76.2428C69.4138 78.4099 69.2843 81.6373 67.0947 83.6472C65.2641 85.325 62.3622 85.4123 60.3609 83.752C59.0366 82.6568 57.8181 81.4451 56.5585 80.2741C53.2446 77.1865 49.9249 74.1106 46.6404 70.9939C45.9929 70.3822 45.4161 69.6773 44.9217 68.9374C43.8268 67.3121 43.821 65.5469 44.3978 63.7352C45.3513 60.7175 46.3167 57.7056 47.229 54.6821C47.5233 53.6976 47.7293 52.6839 47.8941 51.6703C48.7064 46.7476 53.1269 43.3513 58.1124 43.9164C62.0561 44.3649 64.6107 46.5787 65.9174 50.2372C66.1823 50.9828 66.3354 51.7693 66.5178 52.5441C66.8592 53.9364 67.6892 55.0491 68.6721 56.0278C69.5256 56.8726 70.4674 57.6532 71.4504 58.3406C72.8513 59.3193 74.2639 60.2747 75.1174 61.8069C76.1181 63.6012 76.5949 65.4479 75.5766 67.4053C75.4117 67.7257 75.1763 68.017 74.9821 68.3083C76.3005 69.0656 77.5896 69.7181 78.7904 70.5104C81.551 72.3338 83.5758 74.7456 84.4822 77.9614C84.6765 78.6488 84.8178 79.3653 84.8354 80.0761C84.8707 81.5266 84.9002 82.9947 84.753 84.4395C84.5823 86.1056 83.7877 87.5795 82.9813 89.0301C81.4274 91.8147 80.4738 94.8033 80.1383 97.9608C79.9735 99.5395 79.9617 101.136 79.9146 102.726C79.8793 103.973 79.4496 104.573 78.2076 104.777C76.6831 105.027 75.1469 105.249 73.6106 105.4C72.092 105.552 70.5616 105.639 69.0312 105.68C65.2052 105.79 57.5533 105.942 53.7273 105.79L53.7214 105.796Z" fill="#0F0F0F" stroke="#0F0F0F" stroke-width="0.5" stroke-miterlimit="10"/>
<path d="M68.9484 30.7561C68.9308 33.9253 68.4187 36.5002 66.7293 38.7256C65.3814 40.4966 63.5273 41.5161 61.373 41.9588C60.0957 42.221 58.7772 42.32 57.4705 42.4074C56.5052 42.4773 55.84 41.8889 55.8459 41.1199C55.8459 40.3102 56.511 39.7567 57.4881 39.7451C58.0944 39.7451 58.7242 39.8441 59.3069 39.7334C62.5796 39.1334 65.093 38.1197 66.023 34.2282C66.541 32.0727 66.5116 29.9289 65.7993 27.7967C64.4573 23.8003 60.131 21.1904 55.9283 21.8604C52.1612 22.4604 49.6831 24.5693 48.4529 28.1113C48.2234 28.7754 48.1528 29.5153 48.1057 30.226C48.0586 30.9018 47.8643 31.4552 47.3758 31.9387C46.2515 33.0514 45.8219 34.4845 45.657 35.9934C45.4275 38.1314 45.6865 40.2461 46.0691 42.3608C46.6459 45.5416 46.6871 48.734 45.9631 51.8974C45.4039 54.3208 44.6446 56.6802 43.2379 58.7716C42.6963 59.5755 42.0783 60.3387 41.4367 61.0611C40.854 61.7194 40.1594 61.731 39.5767 61.2009C38.994 60.6708 39.0293 59.9833 39.5649 59.2901C40.3537 58.259 41.213 57.2453 41.8016 56.1035C42.4844 54.7694 43.0377 53.3421 43.3909 51.8915C43.7264 50.4934 43.7617 49.0195 43.8677 47.5747C44.0266 45.4251 43.6146 43.322 43.2555 41.219C42.7964 38.4868 42.6963 35.7604 43.697 33.1213C44.0442 32.2125 44.6505 31.397 45.1155 30.5289C45.2744 30.2318 45.4451 29.9114 45.4922 29.5852C46.175 25.0412 48.5354 21.7672 52.8852 20.002C55.5281 18.9301 58.2474 18.8544 60.9315 19.7748C64.5868 21.0273 67.0413 23.5265 68.3304 27.1384C68.7954 28.4492 69.0249 29.8066 68.9602 30.7445L68.9484 30.7561Z" fill="#0F0F0F" stroke="#0F0F0F" stroke-width="0.5" stroke-miterlimit="10"/>
</g>
<defs>
<clipPath id="clip0_247_618">
<rect width="46" height="87" fill="white" transform="translate(39 19)"/>
</clipPath>
</defs>
</svg>
