<svg width="123" height="123" viewBox="0 0 123 123" fill="none" xmlns="http://www.w3.org/2000/svg">
<rect x="0.760254" y="0.591797" width="121.506" height="121.506" rx="25" fill="#F6F5ED"/>
<g clip-path="url(#clip0_247_617)">
<path d="M44.9664 26.4563C47.0186 26.4563 49.0709 26.4563 51.1231 26.4563C51.2407 26.4563 51.3672 26.4928 51.4848 26.5019C52.0272 26.5202 52.5787 26.5111 53.1211 26.5567C53.3652 26.5749 53.6093 26.6662 53.8353 26.7757C55.4808 27.588 56.3035 28.9479 56.3216 30.7915C56.3396 33.201 56.3216 35.6013 56.3035 38.0108C56.2764 42.2 56.7284 46.3436 57.2528 50.4871C57.4788 52.2669 57.6505 54.0557 57.9127 55.8354C58.3557 58.7834 59.9017 61.2476 61.2759 63.8122C63.7531 68.403 67.7129 71.424 71.7722 74.3719C74.8099 76.5715 77.8657 78.7254 80.9034 80.925C83.4529 82.7686 86.2193 84.2289 89.031 85.607C89.3022 85.7439 89.5735 85.8717 89.8357 86.0086C92.7106 87.5419 93.2259 89.203 91.6619 92.087C89.8628 95.4001 87.0601 97.5266 83.5523 98.6948C79.2037 100.146 74.9003 99.6258 70.6421 98.2111C67.8847 97.2893 65.3533 95.902 62.9394 94.2957C57.4697 90.6724 51.5752 88.0074 45.2647 86.2641C43.0407 85.6526 40.8167 85.0503 38.8186 83.8182C35.5007 81.7646 33.9095 78.3695 34.6237 74.5088C34.904 73.0029 35.4916 71.5518 35.781 70.0458C36.2149 67.7459 36.7845 65.4186 36.8206 63.0912C36.893 58.0076 36.6669 52.924 36.5494 47.8312C36.5313 47.2289 36.4138 46.6265 36.3776 46.015C36.3324 45.3305 36.7212 44.8285 37.2998 44.7464C37.8603 44.6642 38.3756 45.0749 38.4841 45.7595C38.5655 46.2523 38.5836 46.7634 38.6017 47.2745C38.6197 47.7582 38.7734 48.0138 39.3068 48.032C44.3154 48.1689 49.2065 47.4935 53.9438 45.8051C54.3868 45.6499 54.4953 45.4035 54.4863 44.9654C54.3688 40.2651 54.2783 35.5557 54.1789 30.8463C54.1518 29.4773 53.3381 28.6011 51.982 28.6011C47.7238 28.6011 43.4746 28.6285 39.2164 28.6832C37.6524 28.7015 36.7845 29.7511 36.9834 31.3391C37.2275 33.3196 37.5168 35.3002 37.779 37.2807C37.8061 37.5088 37.8422 37.737 37.8513 37.9561C37.8784 38.7136 37.5168 39.2064 36.893 39.2703C36.2601 39.3342 35.79 38.8687 35.6905 38.093C35.4103 36.012 35.0939 33.9403 34.8498 31.8502C34.7684 31.184 34.7413 30.4721 34.8859 29.8241C35.3199 27.8436 36.911 26.5841 39.0266 26.5293C41.0065 26.4837 42.9864 26.5202 44.9664 26.5202C44.9664 26.5019 44.9664 26.4746 44.9664 26.4563ZM54.7937 47.9225C54.4772 47.9864 54.2783 48.0046 54.0975 48.0685C49.4687 49.6748 44.6861 50.2681 39.8131 50.2225C39.1742 50.2225 38.8608 50.5419 38.8729 51.1808C38.9271 55.0779 39.0085 58.975 39.0175 62.8722C39.0175 63.648 39.2255 64.1591 39.795 64.6975C45.5992 70.1371 49.1703 76.7358 49.8936 84.7947C49.9207 85.0594 50.1467 85.4153 50.3818 85.5249C53.5732 86.9943 56.7736 88.4454 59.9831 89.8601C60.2543 89.9787 60.6973 89.9787 60.9504 89.8418C65.733 87.3046 69.5753 83.7908 71.953 78.8076C72.6401 77.3655 72.6853 77.758 71.4648 76.7905C68.7436 74.6366 66.0223 72.4918 63.3372 70.3014C62.8761 69.9272 62.4964 69.7629 61.9268 69.8724C59.1513 70.42 56.4391 70.1645 53.7901 69.1879C48.5555 67.253 46.8559 61.85 50.8609 57.6699C52.0905 56.383 53.5551 55.3335 54.8841 54.147C55.1191 53.9371 55.4084 53.5902 55.3904 53.3256C55.2367 51.5641 55.0106 49.8117 54.7937 47.9316V47.9225ZM62.7134 91.4025C65.299 93.6386 70.9857 96.3766 74.1951 96.9425C77.4046 97.5175 80.596 97.627 83.6608 96.331C86.2917 95.2175 88.4886 93.5473 89.8266 90.9188C90.6403 89.3034 90.4866 88.8196 88.9316 87.9526C88.6694 87.8066 88.3891 87.6879 88.1269 87.5419C86.147 86.4832 84.1219 85.5066 82.2143 84.3384C80.4333 83.2523 78.7788 81.9745 77.0701 80.7789C76.1931 80.1674 75.3162 79.5468 74.3579 78.8806C71.8626 84.4205 67.8756 88.4272 62.7224 91.4025H62.7134ZM38.6378 66.5503C38.4661 67.4995 38.3666 68.2479 38.1948 68.9689C37.7609 70.7577 37.2275 72.5283 36.8478 74.3354C36.0793 77.9588 37.3992 80.7333 40.6991 82.3579C41.8835 82.942 43.1763 83.3071 44.433 83.7269C45.4636 84.0646 46.5304 84.3293 47.7509 84.6852C46.892 77.4842 43.8001 71.6248 38.6378 66.5594V66.5503ZM61.3121 67.7824C58.9163 64.0952 56.5657 60.5996 55.7429 56.2461C54.1879 57.3779 52.8499 58.5096 51.8102 59.9516C50.201 62.2059 50.6078 64.7432 52.9041 66.2765C55.4175 67.9649 58.2292 68.1292 61.3121 67.7824Z" fill="#0F0F0F" stroke="#0F0F0F" stroke-miterlimit="10"/>
</g>
<defs>
<clipPath id="clip0_247_617">
<rect width="59" height="74" fill="white" transform="translate(34 26)"/>
</clipPath>
</defs>
</svg>
